NotoSerifArmenian-Bold.ufo
<glyph name="dieresiscomb" format="2">
  <unicode hex="0308"/>
  <anchor x="-2" y="536" name="_top"/>
  <outline>
    <contour>
      <point x="107" y="614" type="curve" smooth="yes"/>
      <point x="142" y="614"/>
      <point x="180" y="634"/>
      <point x="180" y="688" type="curve" smooth="yes"/>
      <point x="180" y="743"/>
      <point x="142" y="762"/>
      <point x="107" y="762" type="curve" smooth="yes"/>
      <point x="68" y="762"/>
      <point x="32" y="743"/>
      <point x="32" y="688" type="curve" smooth="yes"/>
      <point x="32" y="634"/>
      <point x="68" y="614"/>
    </contour>
    <contour>
      <point x="-111" y="614" type="curve" smooth="yes"/>
      <point x="-74" y="614"/>
      <point x="-36" y="634"/>
      <point x="-36" y="688" type="curve" smooth="yes"/>
      <point x="-36" y="743"/>
      <point x="-74" y="762"/>
      <point x="-111" y="762" type="curve" smooth="yes"/>
      <point x="-148" y="762"/>
      <point x="-184" y="743"/>
      <point x="-184" y="688" type="curve" smooth="yes"/>
      <point x="-184" y="634"/>
      <point x="-148" y="614"/>
    </contour>
  </outline>
</glyph>
<glyph name="uni0531" format="2">
  <advance width="957"/>
  <unicode hex="0531"/>
  <note>
uni0531
</note>
  <anchor x="395" y="714" name="top"/>
  <outline>
    <contour>
      <point x="454" y="714" type="line"/>
      <point x="454" y="654" type="line"/>
      <point x="489" y="654"/>
      <point x="495" y="645"/>
      <point x="495" y="598" type="curve" smooth="yes"/>
      <point x="495" y="192" type="line" smooth="yes"/>
      <point x="495" y="106"/>
      <point x="456" y="66"/>
      <point x="396" y="66" type="curve" smooth="yes"/>
      <point x="329" y="66"/>
      <point x="294" y="113"/>
      <point x="294" y="195" type="curve" smooth="yes"/>
      <point x="294" y="714" type="line"/>
      <point x="57" y="714" type="line"/>
      <point x="57" y="654" type="line"/>
      <point x="93" y="654"/>
      <point x="100" y="645"/>
      <point x="100" y="598" type="curve" smooth="yes"/>
      <point x="100" y="225" type="line" smooth="yes"/>
      <point x="100" y="80"/>
      <point x="206" y="-10"/>
      <point x="395" y="-10" type="curve" smooth="yes"/>
      <point x="578" y="-10"/>
      <point x="689" y="69"/>
      <point x="689" y="224" type="curve" smooth="yes"/>
      <point x="689" y="714" type="line"/>
    </contour>
    <contour>
      <point x="676" y="268" type="curve"/>
      <point x="673" y="187" type="line"/>
      <point x="676" y="188"/>
      <point x="694" y="190"/>
      <point x="696" y="190" type="curve" smooth="yes"/>
      <point x="746" y="190"/>
      <point x="753" y="177"/>
      <point x="753" y="79" type="curve" smooth="yes"/>
      <point x="753" y="0" type="line"/>
      <point x="937" y="0" type="line"/>
      <point x="937" y="75" type="line" smooth="yes"/>
      <point x="937" y="221"/>
      <point x="884" y="275"/>
      <point x="741" y="275" type="curve" smooth="yes"/>
      <point x="720" y="275"/>
      <point x="701" y="271"/>
    </contour>
  </outline>
</glyph>
<glyph name="uni0532" format="2">
  <advance width="748"/>
  <unicode hex="0532"/>
  <note>
uni0532
</note>
  <outline>
    <contour>
      <point x="335" y="0" type="line"/>
      <point x="335" y="60" type="line"/>
      <point x="299" y="60"/>
      <point x="293" y="69"/>
      <point x="293" y="116" type="curve" smooth="yes"/>
      <point x="293" y="522" type="line" smooth="yes"/>
      <point x="293" y="608"/>
      <point x="332" y="648"/>
      <point x="393" y="648" type="curve" smooth="yes"/>
      <point x="459" y="648"/>
      <point x="494" y="601"/>
      <point x="494" y="519" type="curve" smooth="yes"/>
      <point x="494" y="416" type="line"/>
      <point x="688" y="416" type="line"/>
      <point x="688" y="489" type="line" smooth="yes"/>
      <point x="688" y="634"/>
      <point x="582" y="724"/>
      <point x="393" y="724" type="curve" smooth="yes"/>
      <point x="210" y="724"/>
      <point x="99" y="645"/>
      <point x="99" y="490" type="curve" smooth="yes"/>
      <point x="99" y="0" type="line"/>
    </contour>
    <contour>
      <point x="283" y="278" type="line"/>
      <point x="679" y="278" type="line"/>
      <point x="679" y="348" type="line"/>
      <point x="283" y="348" type="line"/>
    </contour>
  </outline>
</glyph>
<glyph name="uni0533" format="2">
  <advance width="878"/>
  <unicode hex="0533"/>
  <note>
uni0533
</note>
  <outline>
    <contour>
      <point x="476" y="0" type="line"/>
      <point x="710" y="0" type="line"/>
      <point x="710" y="60" type="line"/>
      <point x="677" y="60"/>
      <point x="670" y="69"/>
      <point x="670" y="116" type="curve" smooth="yes"/>
      <point x="670" y="480" type="line" smooth="yes"/>
      <point x="670" y="637"/>
      <point x="552" y="724"/>
      <point x="362" y="724" type="curve" smooth="yes"/>
      <point x="174" y="724"/>
      <point x="62" y="637"/>
      <point x="62" y="498" type="curve" smooth="yes"/>
      <point x="62" y="357"/>
      <point x="164" y="280"/>
      <point x="351" y="280" type="curve" smooth="yes"/>
      <point x="476" y="280" type="line"/>
    </contour>
    <contour>
      <point x="351" y="350" type="line" smooth="yes"/>
      <point x="284" y="350"/>
      <point x="256" y="381"/>
      <point x="256" y="498" type="curve" smooth="yes"/>
      <point x="256" y="614"/>
      <point x="297" y="648"/>
      <point x="362" y="648" type="curve" smooth="yes"/>
      <point x="428" y="648"/>
      <point x="476" y="604"/>
      <point x="476" y="512" type="curve" smooth="yes"/>
      <point x="476" y="350" type="line"/>
    </contour>
    <contour>
      <point x="659" y="280" type="line"/>
      <point x="874" y="280" type="line"/>
      <point x="874" y="350" type="line"/>
      <point x="659" y="350" type="line"/>
    </contour>
  </outline>
</glyph>
<glyph name="uni0534" format="2">
  <advance width="863"/>
  <unicode hex="0534"/>
  <note>
uni0534
</note>
  <outline>
    <contour>
      <point x="60" y="337" type="line"/>
      <point x="254" y="337" type="line"/>
      <point x="254" y="522" type="line" smooth="yes"/>
      <point x="254" y="608"/>
      <point x="296" y="648"/>
      <point x="359" y="648" type="curve" smooth="yes"/>
      <point x="428" y="648"/>
      <point x="466" y="601"/>
      <point x="466" y="519" type="curve" smooth="yes"/>
      <point x="466" y="0" type="line"/>
      <point x="704" y="0" type="line"/>
      <point x="704" y="60" type="line"/>
      <point x="668" y="60"/>
      <point x="660" y="69"/>
      <point x="660" y="116" type="curve" smooth="yes"/>
      <point x="660" y="489" type="line" smooth="yes"/>
      <point x="660" y="634"/>
      <point x="552" y="724"/>
      <point x="360" y="724" type="curve" smooth="yes"/>
      <point x="174" y="724"/>
      <point x="60" y="645"/>
      <point x="60" y="490" type="curve" smooth="yes"/>
    </contour>
    <contour>
      <point x="652" y="280" type="line"/>
      <point x="859" y="280" type="line"/>
      <point x="859" y="350" type="line"/>
      <point x="652" y="350" type="line"/>
    </contour>
  </outline>
</glyph>
<glyph name="uni0535" format="2">
  <advance width="753"/>
  <unicode hex="0535"/>
  <note>
uni0535
</note>
  <outline>
    <contour>
      <point x="399" y="-10" type="curve" smooth="yes"/>
      <point x="590" y="-10"/>
      <point x="697" y="79"/>
      <point x="697" y="225" type="curve" smooth="yes"/>
      <point x="697" y="291" type="line"/>
      <point x="503" y="291" type="line"/>
      <point x="503" y="195" type="line" smooth="yes"/>
      <point x="503" y="109"/>
      <point x="466" y="66"/>
      <point x="399" y="66" type="curve" smooth="yes"/>
      <point x="334" y="66"/>
      <point x="295" y="105"/>
      <point x="295" y="192" type="curve" smooth="yes"/>
      <point x="295" y="714" type="line"/>
      <point x="57" y="714" type="line"/>
      <point x="57" y="654" type="line"/>
      <point x="94" y="654"/>
      <point x="101" y="645"/>
      <point x="101" y="598" type="curve" smooth="yes"/>
      <point x="101" y="224" type="line" smooth="yes"/>
      <point x="101" y="70"/>
      <point x="212" y="-10"/>
    </contour>
    <contour>
      <point x="284" y="426" type="line"/>
      <point x="693" y="426" type="line"/>
      <point x="693" y="496" type="line"/>
      <point x="284" y="496" type="line"/>
    </contour>
  </outline>
</glyph>
<glyph name="uni0536" format="2">
  <advance width="673"/>
  <unicode hex="0536"/>
  <note>
uni0536
</note>
  <outline>
    <contour>
      <point x="308" y="276" type="curve" smooth="yes"/>
      <point x="477" y="276"/>
      <point x="615" y="355"/>
      <point x="615" y="480" type="curve" smooth="yes"/>
      <point x="615" y="644"/>
      <point x="485" y="722"/>
      <point x="326" y="722" type="curve" smooth="yes"/>
      <point x="161" y="722"/>
      <point x="40" y="634"/>
      <point x="40" y="492" type="curve" smooth="yes"/>
      <point x="40" y="354"/>
      <point x="166" y="276"/>
    </contour>
    <contour>
      <point x="55" y="0" type="line"/>
      <point x="241" y="0" type="line"/>
      <point x="241" y="207" type="line"/>
      <point x="55" y="207" type="line"/>
    </contour>
    <contour>
      <point x="449" y="0" type="line"/>
      <point x="643" y="0" type="line"/>
      <point x="643" y="14" type="line" smooth="yes"/>
      <point x="643" y="113"/>
      <point x="584" y="158"/>
      <point x="444" y="158" type="curve" smooth="yes"/>
      <point x="148" y="158" type="line"/>
      <point x="148" y="88" type="line"/>
      <point x="361" y="88" type="line" smooth="yes"/>
      <point x="432" y="88"/>
      <point x="449" y="73"/>
      <point x="449" y="20" type="curve" smooth="yes"/>
    </contour>
    <contour>
      <point x="235" y="97" type="line"/>
      <point x="464" y="115"/>
      <point x="615" y="241"/>
      <point x="615" y="480" type="curve"/>
      <point x="431" y="480" type="line"/>
      <point x="431" y="233"/>
      <point x="369" y="158"/>
      <point x="235" y="158" type="curve"/>
    </contour>
    <contour>
      <point x="328" y="352" type="curve" smooth="yes"/>
      <point x="281" y="352"/>
      <point x="246" y="406"/>
      <point x="246" y="492" type="curve" smooth="yes"/>
      <point x="246" y="588"/>
      <point x="282" y="646"/>
      <point x="326" y="646" type="curve" smooth="yes"/>
      <point x="372" y="646"/>
      <point x="410" y="593"/>
      <point x="410" y="506" type="curve" smooth="yes"/>
      <point x="410" y="407"/>
      <point x="370" y="352"/>
    </contour>
  </outline>
</glyph>
<glyph name="uni0537" format="2">
  <advance width="649"/>
  <unicode hex="0537"/>
  <note>
uni0537
</note>
  <outline>
    <contour>
      <point x="295" y="52" type="line"/>
      <point x="295" y="714" type="line"/>
      <point x="57" y="714" type="line"/>
      <point x="57" y="654" type="line"/>
      <point x="94" y="654"/>
      <point x="101" y="645"/>
      <point x="101" y="598" type="curve" smooth="yes"/>
      <point x="101" y="0" type="line"/>
    </contour>
    <contour>
      <point x="215" y="426" type="line"/>
      <point x="584" y="426" type="line"/>
      <point x="584" y="496" type="line"/>
      <point x="215" y="496" type="line"/>
    </contour>
    <contour>
      <point x="398" y="116" type="curve" smooth="yes"/>
      <point x="323" y="116"/>
      <point x="241" y="99"/>
      <point x="100" y="55" type="curve"/>
      <point x="100" y="0" type="line"/>
      <point x="172" y="20"/>
      <point x="261" y="36"/>
      <point x="315" y="36" type="curve" smooth="yes"/>
      <point x="382" y="36"/>
      <point x="402" y="15"/>
      <point x="402" y="-32" type="curve" smooth="yes"/>
      <point x="402" y="-62" type="line"/>
      <point x="596" y="-62" type="line"/>
      <point x="596" y="-35" type="line" smooth="yes"/>
      <point x="596" y="63"/>
      <point x="535" y="116"/>
    </contour>
  </outline>
</glyph>
<glyph name="uni0538" format="2">
  <advance width="782"/>
  <unicode hex="0538"/>
  <note>
uni0538
</note>
  <outline>
    <contour>
      <point x="399" y="724" type="curve" smooth="yes"/>
      <point x="213" y="724"/>
      <point x="99" y="645"/>
      <point x="99" y="490" type="curve" smooth="yes"/>
      <point x="99" y="0" type="line"/>
      <point x="293" y="0" type="line"/>
      <point x="293" y="522" type="line" smooth="yes"/>
      <point x="293" y="608"/>
      <point x="335" y="648"/>
      <point x="398" y="648" type="curve" smooth="yes"/>
      <point x="467" y="648"/>
      <point x="505" y="601"/>
      <point x="505" y="519" type="curve" smooth="yes"/>
      <point x="505" y="347" type="line"/>
      <point x="699" y="347" type="line"/>
      <point x="699" y="489" type="line" smooth="yes"/>
      <point x="699" y="634"/>
      <point x="591" y="724"/>
    </contour>
    <contour>
      <point x="283" y="0" type="line"/>
      <point x="722" y="0" type="line"/>
      <point x="722" y="70" type="line"/>
      <point x="283" y="70" type="line"/>
    </contour>
  </outline>
</glyph>
<glyph name="uni0539" format="2">
  <advance width="885"/>
  <unicode hex="0539"/>
  <note>
uni0539
</note>
  <outline>
    <contour>
      <point x="335" y="0" type="line"/>
      <point x="335" y="60" type="line"/>
      <point x="299" y="60"/>
      <point x="293" y="69"/>
      <point x="293" y="116" type="curve" smooth="yes"/>
      <point x="293" y="489" type="line" smooth="yes"/>
      <point x="293" y="608"/>
      <point x="357" y="648"/>
      <point x="454" y="648" type="curve" smooth="yes"/>
      <point x="559" y="648"/>
      <point x="619" y="607"/>
      <point x="619" y="459" type="curve"/>
      <point x="813" y="459" type="line"/>
      <point x="813" y="638"/>
      <point x="683" y="724"/>
      <point x="455" y="724" type="curve" smooth="yes"/>
      <point x="235" y="724"/>
      <point x="99" y="645"/>
      <point x="99" y="490" type="curve" smooth="yes"/>
      <point x="99" y="0" type="line"/>
    </contour>
    <contour>
      <point x="578" y="418" type="curve" smooth="yes"/>
      <point x="619" y="418" type="line"/>
      <point x="619" y="218"/>
      <point x="614" y="194"/>
      <point x="571" y="194" type="curve" smooth="yes"/>
      <point x="539" y="194"/>
      <point x="530" y="219"/>
      <point x="530" y="301" type="curve" smooth="yes"/>
      <point x="530" y="370"/>
      <point x="544" y="418"/>
    </contour>
    <contour>
      <point x="881" y="488" type="line"/>
      <point x="543" y="488" type="line" smooth="yes"/>
      <point x="412" y="488"/>
      <point x="353" y="413"/>
      <point x="353" y="315" type="curve" smooth="yes"/>
      <point x="353" y="196"/>
      <point x="414" y="124"/>
      <point x="571" y="124" type="curve" smooth="yes"/>
      <point x="730" y="124"/>
      <point x="813" y="225"/>
      <point x="813" y="418" type="curve"/>
      <point x="881" y="418" type="line"/>
    </contour>
  </outline>
</glyph>
<glyph name="uni053A" format="2">
  <advance width="769"/>
  <unicode hex="053A"/>
  <note>
uni053A
</note>
  <outline>
    <contour>
      <point x="333" y="-10" type="curve" smooth="yes"/>
      <point x="520" y="-10"/>
      <point x="624" y="87"/>
      <point x="624" y="239" type="curve" smooth="yes"/>
      <point x="624" y="714" type="line"/>
      <point x="390" y="714" type="line"/>
      <point x="390" y="654" type="line"/>
      <point x="423" y="654"/>
      <point x="430" y="645"/>
      <point x="430" y="598" type="curve" smooth="yes"/>
      <point x="430" y="468" type="line"/>
      <point x="339" y="468" type="line" smooth="yes"/>
      <point x="159" y="468"/>
      <point x="45" y="369"/>
      <point x="45" y="234" type="curve" smooth="yes"/>
      <point x="45" y="74"/>
      <point x="144" y="-10"/>
    </contour>
    <contour>
      <point x="339" y="66" type="curve" smooth="yes"/>
      <point x="280" y="66"/>
      <point x="252" y="94"/>
      <point x="252" y="233" type="curve" smooth="yes"/>
      <point x="252" y="344"/>
      <point x="305" y="398"/>
      <point x="365" y="398" type="curve" smooth="yes"/>
      <point x="430" y="398" type="line"/>
      <point x="430" y="207" type="line" smooth="yes"/>
      <point x="430" y="120"/>
      <point x="396" y="66"/>
    </contour>
    <contour>
      <point x="614" y="468" type="line"/>
      <point x="614" y="398" type="line"/>
      <point x="765" y="398" type="line"/>
      <point x="765" y="468" type="line"/>
    </contour>
  </outline>
</glyph>
<glyph name="uni053B" format="2">
  <advance width="752"/>
  <unicode hex="053B"/>
  <note>
uni053B
</note>
  <outline>
    <contour>
      <point x="305" y="308" type="line" smooth="yes"/>
      <point x="305" y="409"/>
      <point x="344" y="478"/>
      <point x="427" y="478" type="curve" smooth="yes"/>
      <point x="475" y="478"/>
      <point x="501" y="459"/>
      <point x="501" y="331" type="curve" smooth="yes"/>
      <point x="501" y="276" type="line"/>
      <point x="695" y="276" type="line"/>
      <point x="695" y="311" type="line" smooth="yes"/>
      <point x="695" y="488"/>
      <point x="639" y="562"/>
      <point x="480" y="562" type="curve" smooth="yes"/>
      <point x="382" y="562"/>
      <point x="343" y="535"/>
      <point x="309" y="499" type="curve"/>
      <point x="300" y="498" type="line"/>
      <point x="304" y="526"/>
      <point x="305" y="555"/>
      <point x="305" y="587" type="curve" smooth="yes"/>
      <point x="305" y="714" type="line"/>
      <point x="68" y="714" type="line"/>
      <point x="68" y="654" type="line"/>
      <point x="104" y="654"/>
      <point x="111" y="643"/>
      <point x="111" y="597" type="curve" smooth="yes"/>
      <point x="111" y="0" type="line"/>
      <point x="348" y="0" type="line"/>
      <point x="348" y="60" type="line"/>
      <point x="313" y="60"/>
      <point x="305" y="71"/>
      <point x="305" y="117" type="curve" smooth="yes"/>
    </contour>
  </outline>
</glyph>
<glyph name="uni053C" format="2">
  <advance width="618"/>
  <unicode hex="053C"/>
  <note>
uni053C
</note>
  <outline>
    <contour>
      <point x="609" y="115" type="line"/>
      <point x="545" y="115" type="line"/>
      <point x="545" y="81"/>
      <point x="542" y="70"/>
      <point x="505" y="70" type="curve" smooth="yes"/>
      <point x="305" y="70" type="line"/>
      <point x="305" y="714" type="line"/>
      <point x="68" y="714" type="line"/>
      <point x="68" y="654" type="line"/>
      <point x="104" y="654"/>
      <point x="111" y="643"/>
      <point x="111" y="597" type="curve" smooth="yes"/>
      <point x="111" y="0" type="line"/>
      <point x="609" y="0" type="line"/>
    </contour>
  </outline>
</glyph>
<glyph name="uni053D" format="2">
  <advance width="1018"/>
  <unicode hex="053D"/>
  <note>
uni053D
</note>
  <outline>
    <contour>
      <point x="305" y="117" type="curve" smooth="yes"/>
      <point x="305" y="714" type="line"/>
      <point x="68" y="714" type="line"/>
      <point x="68" y="654" type="line"/>
      <point x="104" y="654"/>
      <point x="111" y="643"/>
      <point x="111" y="597" type="curve" smooth="yes"/>
      <point x="111" y="0" type="line"/>
      <point x="348" y="0" type="line"/>
      <point x="348" y="60" type="line"/>
      <point x="313" y="60"/>
      <point x="305" y="71"/>
    </contour>
    <contour>
      <point x="717" y="498" type="line"/>
      <point x="746" y="498"/>
      <point x="765" y="488"/>
      <point x="765" y="460" type="curve" smooth="yes"/>
      <point x="765" y="341" type="line" smooth="yes"/>
      <point x="765" y="266"/>
      <point x="747" y="229"/>
      <point x="694" y="229" type="curve" smooth="yes"/>
      <point x="637" y="229"/>
      <point x="622" y="269"/>
      <point x="622" y="341" type="curve" smooth="yes"/>
      <point x="622" y="560" type="line"/>
      <point x="281" y="560" type="line"/>
      <point x="281" y="490" type="line"/>
      <point x="428" y="490" type="line"/>
      <point x="428" y="340" type="line" smooth="yes"/>
      <point x="428" y="220"/>
      <point x="534" y="155"/>
      <point x="694" y="155" type="curve" smooth="yes"/>
      <point x="852" y="155"/>
      <point x="959" y="218"/>
      <point x="959" y="339" type="curve" smooth="yes"/>
      <point x="959" y="560" type="line"/>
      <point x="717" y="560" type="line"/>
    </contour>
  </outline>
</glyph>
<glyph name="uni053E" format="2">
  <advance width="789"/>
  <unicode hex="053E"/>
  <note>
uni053E
</note>
  <outline>
    <contour>
      <point x="314" y="599" type="curve" smooth="yes"/>
      <point x="236" y="611"/>
      <point x="218" y="649"/>
      <point x="218" y="714" type="curve"/>
      <point x="28" y="714" type="line"/>
      <point x="28" y="624"/>
      <point x="97" y="553"/>
      <point x="241" y="538" type="curve" smooth="yes"/>
      <point x="466" y="515"/>
      <point x="525" y="442"/>
      <point x="525" y="289" type="curve" smooth="yes"/>
      <point x="525" y="138"/>
      <point x="477" y="66"/>
      <point x="393" y="66" type="curve" smooth="yes"/>
      <point x="301" y="66"/>
      <point x="267" y="152"/>
      <point x="267" y="263" type="curve" smooth="yes"/>
      <point x="267" y="459"/>
      <point x="404" y="638"/>
      <point x="544" y="638" type="curve" smooth="yes"/>
      <point x="610" y="638"/>
      <point x="644" y="596"/>
      <point x="644" y="520" type="curve"/>
      <point x="740" y="520"/>
      <point x="809" y="562"/>
      <point x="809" y="619" type="curve" smooth="yes"/>
      <point x="809" y="681"/>
      <point x="743" y="723"/>
      <point x="624" y="723" type="curve" smooth="yes"/>
      <point x="321" y="723"/>
      <point x="60" y="460"/>
      <point x="60" y="270" type="curve" smooth="yes"/>
      <point x="60" y="105"/>
      <point x="166" y="-10"/>
      <point x="393" y="-10" type="curve" smooth="yes"/>
      <point x="592" y="-10"/>
      <point x="732" y="121"/>
      <point x="732" y="290" type="curve" smooth="yes"/>
      <point x="732" y="469"/>
      <point x="584" y="556"/>
    </contour>
  </outline>
</glyph>
<glyph name="uni053F" format="2">
  <advance width="785"/>
  <unicode hex="053F"/>
  <note>
uni053F
</note>
  <outline>
    <contour>
      <point x="493" y="0" type="line"/>
      <point x="730" y="0" type="line"/>
      <point x="730" y="60" type="line"/>
      <point x="694" y="60"/>
      <point x="687" y="70"/>
      <point x="687" y="96" type="curve" smooth="yes"/>
      <point x="687" y="480" type="line"/>
      <point x="450" y="480" type="line"/>
      <point x="450" y="420" type="line"/>
      <point x="486" y="420"/>
      <point x="493" y="412"/>
      <point x="493" y="382" type="curve" smooth="yes"/>
      <point x="493" y="355" type="line" smooth="yes"/>
      <point x="493" y="307"/>
      <point x="452" y="236"/>
      <point x="371" y="236" type="curve" smooth="yes"/>
      <point x="320" y="236"/>
      <point x="294" y="255"/>
      <point x="294" y="383" type="curve" smooth="yes"/>
      <point x="294" y="714" type="line"/>
      <point x="57" y="714" type="line"/>
      <point x="57" y="654" type="line"/>
      <point x="93" y="654"/>
      <point x="100" y="645"/>
      <point x="100" y="624" type="curve" smooth="yes"/>
      <point x="100" y="378" type="line" smooth="yes"/>
      <point x="100" y="218"/>
      <point x="163" y="152"/>
      <point x="319" y="152" type="curve" smooth="yes"/>
      <point x="414" y="152"/>
      <point x="454" y="183"/>
      <point x="489" y="220" type="curve"/>
      <point x="499" y="220" type="line"/>
      <point x="494" y="192"/>
      <point x="493" y="163"/>
      <point x="493" y="131" type="curve" smooth="yes"/>
    </contour>
  </outline>
</glyph>
<glyph name="uni0540" format="2">
  <advance width="695"/>
  <unicode hex="0540"/>
  <note>
uni0540
</note>
  <outline>
    <contour>
      <point x="458" y="-62" type="line"/>
      <point x="652" y="-62" type="line"/>
      <point x="652" y="-49" type="line" smooth="yes"/>
      <point x="652" y="59"/>
      <point x="601" y="93"/>
      <point x="425" y="130" type="curve" smooth="yes"/>
      <point x="65" y="206" type="line"/>
      <point x="44" y="131" type="line"/>
      <point x="391" y="59" type="line" smooth="yes"/>
      <point x="443" y="48"/>
      <point x="458" y="23"/>
      <point x="458" y="-42" type="curve" smooth="yes"/>
    </contour>
    <contour>
      <point x="238" y="131" type="line"/>
      <point x="267" y="527"/>
      <point x="322" y="647"/>
      <point x="388" y="647" type="curve" smooth="yes"/>
      <point x="464" y="647"/>
      <point x="493" y="596"/>
      <point x="493" y="489" type="curve"/>
      <point x="588" y="489"/>
      <point x="658" y="530"/>
      <point x="658" y="592" type="curve" smooth="yes"/>
      <point x="658" y="681"/>
      <point x="566" y="723"/>
      <point x="414" y="723" type="curve" smooth="yes"/>
      <point x="197" y="723"/>
      <point x="82" y="598"/>
      <point x="44" y="131" type="curve"/>
    </contour>
  </outline>
</glyph>
<glyph name="uni0541" format="2">
  <advance width="681"/>
  <unicode hex="0541"/>
  <note>
uni0541
</note>
  <outline>
    <contour>
      <point x="335" y="376" type="curve" smooth="yes"/>
      <point x="285" y="376"/>
      <point x="244" y="418"/>
      <point x="244" y="508" type="curve" smooth="yes"/>
      <point x="244" y="594"/>
      <point x="286" y="646"/>
      <point x="331" y="646" type="curve" smooth="yes"/>
      <point x="379" y="646"/>
      <point x="420" y="606"/>
      <point x="420" y="487" type="curve" smooth="yes"/>
      <point x="420" y="461"/>
      <point x="418" y="424"/>
      <point x="415" y="399" type="curve"/>
      <point x="400" y="387"/>
      <point x="362" y="376"/>
    </contour>
    <contour>
      <point x="407" y="315" type="curve"/>
      <point x="398" y="206"/>
      <point x="356" y="66"/>
      <point x="283" y="66" type="curve" smooth="yes"/>
      <point x="254" y="66"/>
      <point x="231" y="86"/>
      <point x="231" y="121" type="curve" smooth="yes"/>
      <point x="231" y="154"/>
      <point x="252" y="177"/>
      <point x="279" y="177" type="curve" smooth="yes"/>
      <point x="359" y="177"/>
      <point x="378" y="-10"/>
      <point x="573" y="-10" type="curve" smooth="yes"/>
      <point x="622" y="-10"/>
      <point x="652" y="25"/>
      <point x="654" y="78" type="curve"/>
      <point x="420" y="78"/>
      <point x="438" y="247"/>
      <point x="224" y="247" type="curve" smooth="yes"/>
      <point x="137" y="247"/>
      <point x="60" y="206"/>
      <point x="60" y="127" type="curve" smooth="yes"/>
      <point x="60" y="34"/>
      <point x="120" y="-10"/>
      <point x="256" y="-10" type="curve" smooth="yes"/>
      <point x="444" y="-10"/>
      <point x="626" y="199"/>
      <point x="626" y="454" type="curve" smooth="yes"/>
      <point x="626" y="658"/>
      <point x="481" y="722"/>
      <point x="331" y="722" type="curve" smooth="yes"/>
      <point x="166" y="722"/>
      <point x="39" y="639"/>
      <point x="39" y="504" type="curve" smooth="yes"/>
      <point x="39" y="374"/>
      <point x="160" y="304"/>
      <point x="304" y="304" type="curve" smooth="yes"/>
      <point x="343" y="304"/>
      <point x="377" y="306"/>
    </contour>
  </outline>
</glyph>
<glyph name="uni0542" format="2">
  <advance width="851"/>
  <unicode hex="0542"/>
  <note>
uni0542
</note>
  <outline>
    <contour>
      <point x="639" y="0" type="line"/>
      <point x="846" y="0" type="line"/>
      <point x="846" y="70" type="line"/>
      <point x="639" y="70" type="line"/>
    </contour>
    <contour>
      <point x="358" y="724" type="curve" smooth="yes"/>
      <point x="167" y="724"/>
      <point x="60" y="635"/>
      <point x="60" y="489" type="curve" smooth="yes"/>
      <point x="60" y="343" type="line"/>
      <point x="254" y="343" type="line"/>
      <point x="254" y="519" type="line" smooth="yes"/>
      <point x="254" y="600"/>
      <point x="290" y="648"/>
      <point x="358" y="648" type="curve" smooth="yes"/>
      <point x="426" y="648"/>
      <point x="465" y="609"/>
      <point x="465" y="522" type="curve" smooth="yes"/>
      <point x="465" y="0" type="line"/>
      <point x="659" y="0" type="line"/>
      <point x="659" y="490" type="line" smooth="yes"/>
      <point x="659" y="644"/>
      <point x="548" y="724"/>
    </contour>
  </outline>
</glyph>
<glyph name="uni0543" format="2">
  <advance width="734"/>
  <unicode hex="0543"/>
  <note>
uni0543
</note>
  <outline>
    <contour>
      <point x="679" y="0" type="line"/>
      <point x="679" y="460"/>
      <point x="514" y="631"/>
      <point x="66" y="631" type="curve"/>
      <point x="66" y="555" type="line"/>
      <point x="410" y="555"/>
      <point x="485" y="402"/>
      <point x="485" y="76" type="curve"/>
      <point x="370" y="76" type="line" smooth="yes"/>
      <point x="289" y="76"/>
      <point x="236" y="120"/>
      <point x="236" y="230" type="curve" smooth="yes"/>
      <point x="236" y="475"/>
      <point x="378" y="635"/>
      <point x="493" y="635" type="curve" smooth="yes"/>
      <point x="529" y="635"/>
      <point x="550" y="600"/>
      <point x="550" y="527" type="curve"/>
      <point x="646" y="527"/>
      <point x="715" y="569"/>
      <point x="715" y="626" type="curve" smooth="yes"/>
      <point x="715" y="685"/>
      <point x="650" y="723"/>
      <point x="548" y="723" type="curve" smooth="yes"/>
      <point x="291" y="723"/>
      <point x="29" y="404"/>
      <point x="29" y="236" type="curve" smooth="yes"/>
      <point x="29" y="72"/>
      <point x="138" y="0"/>
      <point x="370" y="0" type="curve" smooth="yes"/>
    </contour>
  </outline>
</glyph>
<glyph name="uni0544" format="2">
  <advance width="871"/>
  <unicode hex="0544"/>
  <note>
uni0544
</note>
  <outline>
    <contour>
      <point x="454" y="714" type="line"/>
      <point x="454" y="654" type="line"/>
      <point x="489" y="654"/>
      <point x="495" y="645"/>
      <point x="495" y="598" type="curve" smooth="yes"/>
      <point x="495" y="192" type="line" smooth="yes"/>
      <point x="495" y="106"/>
      <point x="456" y="66"/>
      <point x="396" y="66" type="curve" smooth="yes"/>
      <point x="329" y="66"/>
      <point x="294" y="113"/>
      <point x="294" y="195" type="curve" smooth="yes"/>
      <point x="294" y="714" type="line"/>
      <point x="57" y="714" type="line"/>
      <point x="57" y="654" type="line"/>
      <point x="93" y="654"/>
      <point x="100" y="645"/>
      <point x="100" y="598" type="curve" smooth="yes"/>
      <point x="100" y="225" type="line" smooth="yes"/>
      <point x="100" y="80"/>
      <point x="206" y="-10"/>
      <point x="395" y="-10" type="curve" smooth="yes"/>
      <point x="578" y="-10"/>
      <point x="689" y="69"/>
      <point x="689" y="224" type="curve" smooth="yes"/>
      <point x="689" y="714" type="line"/>
    </contour>
    <contour>
      <point x="695" y="638" type="line" smooth="yes"/>
      <point x="741" y="638"/>
      <point x="765" y="610"/>
      <point x="765" y="487" type="curve"/>
      <point x="852" y="487"/>
      <point x="897" y="533"/>
      <point x="897" y="598" type="curve" smooth="yes"/>
      <point x="897" y="682"/>
      <point x="835" y="714"/>
      <point x="700" y="714" type="curve" smooth="yes"/>
      <point x="631" y="714" type="line"/>
      <point x="631" y="638" type="line"/>
    </contour>
  </outline>
</glyph>
<glyph name="uni0545" format="2">
  <advance width="708"/>
  <unicode hex="0545"/>
  <note>
uni0545
</note>
  <outline>
    <contour>
      <point x="348" y="-12" type="curve" smooth="yes"/>
      <point x="501" y="-12"/>
      <point x="667" y="52"/>
      <point x="667" y="213" type="curve" smooth="yes"/>
      <point x="667" y="337"/>
      <point x="544" y="380"/>
      <point x="461" y="387" type="curve"/>
      <point x="566" y="410"/>
      <point x="644" y="455"/>
      <point x="644" y="559" type="curve" smooth="yes"/>
      <point x="644" y="678"/>
      <point x="526" y="723"/>
      <point x="355" y="723" type="curve" smooth="yes"/>
      <point x="199" y="723"/>
      <point x="89" y="669"/>
      <point x="89" y="595" type="curve" smooth="yes"/>
      <point x="89" y="514"/>
      <point x="159" y="498"/>
      <point x="247" y="498" type="curve"/>
      <point x="247" y="588"/>
      <point x="276" y="647"/>
      <point x="346" y="647" type="curve" smooth="yes"/>
      <point x="417" y="647"/>
      <point x="445" y="616"/>
      <point x="445" y="545" type="curve" smooth="yes"/>
      <point x="445" y="448"/>
      <point x="395" y="416"/>
      <point x="298" y="416" type="curve" smooth="yes"/>
      <point x="47" y="416" type="line"/>
      <point x="47" y="346" type="line"/>
      <point x="300" y="346" type="line" smooth="yes"/>
      <point x="423" y="346"/>
      <point x="466" y="288"/>
      <point x="466" y="205" type="curve" smooth="yes"/>
      <point x="466" y="110"/>
      <point x="418" y="64"/>
      <point x="330" y="64" type="curve" smooth="yes"/>
      <point x="232" y="64"/>
      <point x="218" y="138"/>
      <point x="216" y="238" type="curve"/>
      <point x="132" y="238"/>
      <point x="58" y="197"/>
      <point x="58" y="133" type="curve" smooth="yes"/>
      <point x="58" y="66"/>
      <point x="124" y="-12"/>
    </contour>
  </outline>
</glyph>
<glyph name="uni0546" format="2">
  <advance width="707"/>
  <unicode hex="0546"/>
  <note>
uni0546
</note>
  <outline>
    <contour>
      <point x="350" y="-10" type="curve" smooth="yes"/>
      <point x="545" y="-10"/>
      <point x="647" y="80"/>
      <point x="647" y="225" type="curve" smooth="yes"/>
      <point x="647" y="415" type="line"/>
      <point x="453" y="415" type="line"/>
      <point x="453" y="223" type="line" smooth="yes"/>
      <point x="453" y="113"/>
      <point x="421" y="66"/>
      <point x="349" y="66" type="curve" smooth="yes"/>
      <point x="283" y="66"/>
      <point x="248" y="101"/>
      <point x="248" y="227" type="curve" smooth="yes"/>
      <point x="248" y="350"/>
      <point x="300" y="520"/>
      <point x="371" y="636" type="curve"/>
      <point x="274" y="607" type="line"/>
      <point x="144" y="483"/>
      <point x="41" y="355"/>
      <point x="41" y="228" type="curve" smooth="yes"/>
      <point x="41" y="65"/>
      <point x="161" y="-10"/>
    </contour>
    <contour>
      <point x="371" y="636" type="line"/>
      <point x="228" y="636"/>
      <point x="204" y="692"/>
      <point x="204" y="767" type="curve"/>
      <point x="99" y="767"/>
      <point x="33" y="721"/>
      <point x="33" y="658" type="curve" smooth="yes"/>
      <point x="33" y="590"/>
      <point x="99" y="560"/>
      <point x="294" y="560" type="curve"/>
    </contour>
  </outline>
</glyph>
<glyph name="uni0547" format="2">
  <advance width="708"/>
  <unicode hex="0547"/>
  <note>
uni0547
</note>
  <outline>
    <contour>
      <point x="31" y="623" type="line"/>
      <point x="53" y="627"/>
      <point x="90" y="637"/>
      <point x="132" y="637" type="curve" smooth="yes"/>
      <point x="357" y="637"/>
      <point x="352" y="487"/>
      <point x="519" y="487" type="curve" smooth="yes"/>
      <point x="609" y="487"/>
      <point x="671" y="582"/>
      <point x="671" y="714" type="curve"/>
      <point x="590" y="714" type="line"/>
      <point x="590" y="675"/>
      <point x="551" y="649"/>
      <point x="504" y="649" type="curve" smooth="yes"/>
      <point x="394" y="649"/>
      <point x="321" y="717"/>
      <point x="156" y="717" type="curve" smooth="yes"/>
      <point x="123" y="717"/>
      <point x="60" y="707"/>
      <point x="31" y="699" type="curve"/>
    </contour>
    <contour>
      <point x="407" y="596" type="curve"/>
      <point x="319" y="615" type="line"/>
      <point x="134" y="485"/>
      <point x="43" y="394"/>
      <point x="43" y="226" type="curve" smooth="yes"/>
      <point x="43" y="74"/>
      <point x="167" y="-10"/>
      <point x="344" y="-10" type="curve" smooth="yes"/>
      <point x="530" y="-10"/>
      <point x="629" y="76"/>
      <point x="629" y="198" type="curve" smooth="yes"/>
      <point x="629" y="295" type="line"/>
      <point x="435" y="295" type="line"/>
      <point x="435" y="195" type="line" smooth="yes"/>
      <point x="435" y="112"/>
      <point x="404" y="66"/>
      <point x="342" y="66" type="curve" smooth="yes"/>
      <point x="286" y="66"/>
      <point x="250" y="99"/>
      <point x="250" y="225" type="curve" smooth="yes"/>
      <point x="250" y="397"/>
      <point x="308" y="504"/>
    </contour>
  </outline>
</glyph>
<glyph name="uni0549" format="2">
  <advance width="691"/>
  <unicode hex="0549"/>
  <note>
uni0549
</note>
  <outline>
    <contour>
      <point x="280" y="166" type="curve"/>
      <point x="336" y="115" type="line"/>
      <point x="487" y="167"/>
      <point x="646" y="292"/>
      <point x="646" y="488" type="curve" smooth="yes"/>
      <point x="646" y="640"/>
      <point x="522" y="724"/>
      <point x="338" y="724" type="curve" smooth="yes"/>
      <point x="147" y="724"/>
      <point x="41" y="634"/>
      <point x="41" y="517" type="curve" smooth="yes"/>
      <point x="41" y="479" type="line"/>
      <point x="235" y="479" type="line"/>
      <point x="235" y="519" type="line" smooth="yes"/>
      <point x="235" y="598"/>
      <point x="270" y="648"/>
      <point x="338" y="648" type="curve" smooth="yes"/>
      <point x="400" y="648"/>
      <point x="440" y="616"/>
      <point x="440" y="489" type="curve" smooth="yes"/>
      <point x="440" y="317"/>
      <point x="364" y="191"/>
    </contour>
    <contour>
      <point x="624" y="-10" type="curve"/>
      <point x="624" y="73" type="line"/>
      <point x="469" y="73"/>
      <point x="299" y="193"/>
      <point x="237" y="355" type="curve"/>
      <point x="28" y="260" type="line"/>
      <point x="165" y="94"/>
      <point x="397" y="-3"/>
    </contour>
  </outline>
</glyph>
<glyph name="uni054A" format="2">
  <advance width="968"/>
  <unicode hex="054A"/>
  <note>
uni054A
</note>
  <outline>
    <contour>
      <point x="868" y="116" type="curve" smooth="yes"/>
      <point x="868" y="490" type="line" smooth="yes"/>
      <point x="868" y="634"/>
      <point x="723" y="724"/>
      <point x="460" y="724" type="curve" smooth="yes"/>
      <point x="204" y="724"/>
      <point x="53" y="645"/>
      <point x="53" y="490" type="curve" smooth="yes"/>
      <point x="53" y="325" type="line"/>
      <point x="247" y="325" type="line"/>
      <point x="247" y="522" type="line" smooth="yes"/>
      <point x="247" y="608"/>
      <point x="304" y="648"/>
      <point x="459" y="648" type="curve" smooth="yes"/>
      <point x="620" y="648"/>
      <point x="674" y="601"/>
      <point x="674" y="522" type="curve" smooth="yes"/>
      <point x="674" y="0" type="line"/>
      <point x="911" y="0" type="line"/>
      <point x="911" y="60" type="line"/>
      <point x="875" y="60"/>
      <point x="868" y="69"/>
    </contour>
    <contour>
      <point x="364" y="660" type="line"/>
      <point x="364" y="158" type="line"/>
      <point x="558" y="158" type="line"/>
      <point x="558" y="660" type="line"/>
    </contour>
  </outline>
</glyph>
<glyph name="uni054B" format="2">
  <advance width="692"/>
  <unicode hex="054B"/>
  <note>
uni054B
</note>
  <outline>
    <contour>
      <point x="48" y="0" type="line"/>
      <point x="234" y="0" type="line"/>
      <point x="234" y="207" type="line"/>
      <point x="48" y="207" type="line"/>
    </contour>
    <contour>
      <point x="463" y="0" type="line"/>
      <point x="657" y="0" type="line"/>
      <point x="657" y="14" type="line" smooth="yes"/>
      <point x="657" y="113"/>
      <point x="598" y="158"/>
      <point x="457" y="158" type="curve" smooth="yes"/>
      <point x="141" y="158" type="line"/>
      <point x="141" y="88" type="line"/>
      <point x="374" y="88" type="line" smooth="yes"/>
      <point x="446" y="88"/>
      <point x="463" y="73"/>
      <point x="463" y="20" type="curve" smooth="yes"/>
    </contour>
    <contour>
      <point x="309" y="175" type="curve"/>
      <point x="379" y="221" type="line"/>
      <point x="379" y="303"/>
      <point x="345" y="354"/>
      <point x="308" y="399" type="curve" smooth="yes"/>
      <point x="250" y="471"/>
      <point x="241" y="488"/>
      <point x="241" y="536" type="curve" smooth="yes"/>
      <point x="241" y="598"/>
      <point x="269" y="647"/>
      <point x="332" y="647" type="curve" smooth="yes"/>
      <point x="405" y="647"/>
      <point x="440" y="608"/>
      <point x="440" y="486" type="curve" smooth="yes"/>
      <point x="440" y="364"/>
      <point x="410" y="260"/>
      <point x="357" y="211" type="curve" smooth="yes"/>
      <point x="320" y="177"/>
      <point x="282" y="158"/>
      <point x="235" y="158" type="curve"/>
      <point x="398" y="158" type="line"/>
      <point x="600" y="259"/>
      <point x="647" y="351"/>
      <point x="647" y="485" type="curve" smooth="yes"/>
      <point x="647" y="633"/>
      <point x="526" y="723"/>
      <point x="332" y="723" type="curve" smooth="yes"/>
      <point x="142" y="723"/>
      <point x="34" y="613"/>
      <point x="34" y="491" type="curve" smooth="yes"/>
      <point x="34" y="391"/>
      <point x="77" y="345"/>
      <point x="211" y="300" type="curve" smooth="yes"/>
      <point x="283" y="276"/>
      <point x="309" y="236"/>
    </contour>
  </outline>
</glyph>
<glyph name="uni054C" format="2">
  <advance width="957"/>
  <unicode hex="054C"/>
  <note>
uni054C
</note>
  <outline>
    <contour>
      <point x="336" y="0" type="line"/>
      <point x="336" y="60" type="line"/>
      <point x="300" y="60"/>
      <point x="294" y="69"/>
      <point x="294" y="116" type="curve" smooth="yes"/>
      <point x="294" y="522" type="line" smooth="yes"/>
      <point x="294" y="605"/>
      <point x="333" y="648"/>
      <point x="394" y="648" type="curve" smooth="yes"/>
      <point x="460" y="648"/>
      <point x="495" y="601"/>
      <point x="495" y="519" type="curve" smooth="yes"/>
      <point x="495" y="0" type="line"/>
      <point x="732" y="0" type="line"/>
      <point x="732" y="60" type="line"/>
      <point x="697" y="60"/>
      <point x="689" y="69"/>
      <point x="689" y="116" type="curve" smooth="yes"/>
      <point x="689" y="489" type="line" smooth="yes"/>
      <point x="689" y="634"/>
      <point x="583" y="724"/>
      <point x="394" y="724" type="curve" smooth="yes"/>
      <point x="211" y="724"/>
      <point x="100" y="642"/>
      <point x="100" y="490" type="curve" smooth="yes"/>
      <point x="100" y="0" type="line"/>
    </contour>
    <contour>
      <point x="676" y="425" type="curve"/>
      <point x="673" y="345" type="line"/>
      <point x="683" y="346"/>
      <point x="694" y="347"/>
      <point x="696" y="347" type="curve" smooth="yes"/>
      <point x="746" y="347"/>
      <point x="753" y="335"/>
      <point x="753" y="236" type="curve" smooth="yes"/>
      <point x="753" y="143" type="line"/>
      <point x="937" y="143" type="line"/>
      <point x="937" y="233" type="line" smooth="yes"/>
      <point x="937" y="379"/>
      <point x="884" y="432"/>
      <point x="741" y="432" type="curve" smooth="yes"/>
      <point x="720" y="432"/>
      <point x="701" y="428"/>
    </contour>
  </outline>
</glyph>
<glyph name="uni054D" format="2">
  <advance width="788"/>
  <unicode hex="054D"/>
  <note>
uni054D
</note>
  <outline>
    <contour>
      <point x="454" y="714" type="line"/>
      <point x="454" y="654" type="line"/>
      <point x="489" y="654"/>
      <point x="495" y="645"/>
      <point x="495" y="598" type="curve" smooth="yes"/>
      <point x="495" y="192" type="line" smooth="yes"/>
      <point x="495" y="106"/>
      <point x="456" y="66"/>
      <point x="396" y="66" type="curve" smooth="yes"/>
      <point x="329" y="66"/>
      <point x="294" y="113"/>
      <point x="294" y="195" type="curve" smooth="yes"/>
      <point x="294" y="714" type="line"/>
      <point x="57" y="714" type="line"/>
      <point x="57" y="654" type="line"/>
      <point x="93" y="654"/>
      <point x="100" y="645"/>
      <point x="100" y="598" type="curve" smooth="yes"/>
      <point x="100" y="225" type="line" smooth="yes"/>
      <point x="100" y="80"/>
      <point x="206" y="-10"/>
      <point x="395" y="-10" type="curve" smooth="yes"/>
      <point x="578" y="-10"/>
      <point x="689" y="69"/>
      <point x="689" y="224" type="curve" smooth="yes"/>
      <point x="689" y="714" type="line"/>
    </contour>
  </outline>
</glyph>
<glyph name="uni054E" format="2">
  <advance width="859"/>
  <unicode hex="054E"/>
  <note>
uni054E
</note>
  <outline>
    <contour>
      <point x="424" y="714" type="line"/>
      <point x="424" y="654" type="line"/>
      <point x="460" y="654"/>
      <point x="467" y="645"/>
      <point x="467" y="598" type="curve" smooth="yes"/>
      <point x="467" y="406" type="line" smooth="yes"/>
      <point x="467" y="307"/>
      <point x="426" y="236"/>
      <point x="342" y="236" type="curve" smooth="yes"/>
      <point x="294" y="236"/>
      <point x="268" y="255"/>
      <point x="268" y="383" type="curve" smooth="yes"/>
      <point x="268" y="481" type="line"/>
      <point x="31" y="481" type="line"/>
      <point x="31" y="421" type="line"/>
      <point x="67" y="421"/>
      <point x="74" y="412"/>
      <point x="74" y="391" type="curve" smooth="yes"/>
      <point x="74" y="378" type="line" smooth="yes"/>
      <point x="74" y="218"/>
      <point x="137" y="152"/>
      <point x="289" y="152" type="curve" smooth="yes"/>
      <point x="388" y="152"/>
      <point x="428" y="182"/>
      <point x="463" y="219" type="curve"/>
      <point x="473" y="220" type="line"/>
      <point x="468" y="192"/>
      <point x="467" y="163"/>
      <point x="467" y="131" type="curve" smooth="yes"/>
      <point x="467" y="0" type="line"/>
      <point x="661" y="0" type="line"/>
      <point x="661" y="714" type="line"/>
    </contour>
    <contour>
      <point x="652" y="0" type="line"/>
      <point x="853" y="0" type="line"/>
      <point x="853" y="70" type="line"/>
      <point x="652" y="70" type="line"/>
    </contour>
  </outline>
</glyph>
<glyph name="uni054F" format="2">
  <advance width="611"/>
  <unicode hex="054F"/>
  <note>
uni054F
</note>
  <outline>
    <contour>
      <point x="265" y="-10" type="curve" smooth="yes"/>
      <point x="457" y="-10"/>
      <point x="573" y="84"/>
      <point x="573" y="220" type="curve" smooth="yes"/>
      <point x="573" y="320"/>
      <point x="510" y="384"/>
      <point x="365" y="432" type="curve" smooth="yes"/>
      <point x="218" y="481"/>
      <point x="184" y="520"/>
      <point x="184" y="574" type="curve" smooth="yes"/>
      <point x="184" y="632"/>
      <point x="230" y="648"/>
      <point x="277" y="648" type="curve" smooth="yes"/>
      <point x="376" y="648"/>
      <point x="401" y="592"/>
      <point x="401" y="506" type="curve"/>
      <point x="504" y="506"/>
      <point x="562" y="540"/>
      <point x="562" y="606" type="curve" smooth="yes"/>
      <point x="562" y="671"/>
      <point x="470" y="724"/>
      <point x="296" y="724" type="curve" smooth="yes"/>
      <point x="144" y="724"/>
      <point x="23" y="644"/>
      <point x="23" y="513" type="curve" smooth="yes"/>
      <point x="23" y="410"/>
      <point x="74" y="343"/>
      <point x="252" y="280" type="curve" smooth="yes"/>
      <point x="339" y="249"/>
      <point x="412" y="221"/>
      <point x="412" y="155" type="curve" smooth="yes"/>
      <point x="412" y="109"/>
      <point x="377" y="66"/>
      <point x="299" y="66" type="curve" smooth="yes"/>
      <point x="216" y="66"/>
      <point x="188" y="127"/>
      <point x="188" y="239" type="curve"/>
      <point x="98" y="239"/>
      <point x="21" y="211"/>
      <point x="21" y="131" type="curve" smooth="yes"/>
      <point x="21" y="67"/>
      <point x="80" y="-10"/>
    </contour>
  </outline>
</glyph>
<glyph name="uni0550" format="2">
  <advance width="753"/>
  <unicode hex="0550"/>
  <note>
uni0550
</note>
  <outline>
    <contour>
      <point x="399" y="724" type="curve" smooth="yes"/>
      <point x="210" y="724"/>
      <point x="99" y="645"/>
      <point x="99" y="490" type="curve" smooth="yes"/>
      <point x="99" y="0" type="line"/>
      <point x="335" y="0" type="line"/>
      <point x="335" y="60" type="line"/>
      <point x="299" y="60"/>
      <point x="293" y="69"/>
      <point x="293" y="116" type="curve" smooth="yes"/>
      <point x="293" y="522" type="line" smooth="yes"/>
      <point x="293" y="608"/>
      <point x="332" y="648"/>
      <point x="398" y="648" type="curve" smooth="yes"/>
      <point x="467" y="648"/>
      <point x="503" y="601"/>
      <point x="503" y="519" type="curve" smooth="yes"/>
      <point x="503" y="350" type="line"/>
      <point x="697" y="350" type="line"/>
      <point x="697" y="489" type="line" smooth="yes"/>
      <point x="697" y="634"/>
      <point x="591" y="724"/>
    </contour>
  </outline>
</glyph>
<glyph name="uni0551" format="2">
  <advance width="659"/>
  <unicode hex="0551"/>
  <note>
uni0551
</note>
  <outline>
    <contour>
      <point x="406" y="396" type="curve"/>
      <point x="406" y="399" type="line"/>
      <point x="565" y="438"/>
      <point x="593" y="498"/>
      <point x="593" y="560" type="curve" smooth="yes"/>
      <point x="593" y="647"/>
      <point x="529" y="723"/>
      <point x="323" y="723" type="curve" smooth="yes"/>
      <point x="114" y="723"/>
      <point x="52" y="638"/>
      <point x="52" y="551" type="curve" smooth="yes"/>
      <point x="52" y="473"/>
      <point x="82" y="443"/>
      <point x="177" y="399" type="curve"/>
      <point x="177" y="393" type="line"/>
      <point x="34" y="374" type="line"/>
      <point x="64" y="249" type="line"/>
      <point x="284" y="354" type="line"/>
      <point x="367" y="322"/>
      <point x="419" y="283"/>
      <point x="419" y="195" type="curve" smooth="yes"/>
      <point x="419" y="104"/>
      <point x="393" y="66"/>
      <point x="306" y="66" type="curve" smooth="yes"/>
      <point x="215" y="66"/>
      <point x="193" y="117"/>
      <point x="193" y="235" type="curve"/>
      <point x="105" y="235"/>
      <point x="22" y="207"/>
      <point x="22" y="125" type="curve" smooth="yes"/>
      <point x="22" y="71"/>
      <point x="98" y="-10"/>
      <point x="312" y="-10" type="curve" smooth="yes"/>
      <point x="525" y="-10"/>
      <point x="626" y="74"/>
      <point x="626" y="190" type="curve" smooth="yes"/>
      <point x="626" y="284"/>
      <point x="578" y="355"/>
    </contour>
    <contour>
      <point x="241" y="551" type="curve" smooth="yes"/>
      <point x="241" y="625"/>
      <point x="263" y="647"/>
      <point x="323" y="647" type="curve" smooth="yes"/>
      <point x="382" y="647"/>
      <point x="404" y="616"/>
      <point x="404" y="561" type="curve" smooth="yes"/>
      <point x="404" y="514"/>
      <point x="391" y="457"/>
      <point x="315" y="431" type="curve"/>
      <point x="255" y="457"/>
      <point x="241" y="498"/>
    </contour>
  </outline>
</glyph>
<glyph name="uni0552" format="2">
  <advance width="726"/>
  <unicode hex="0552"/>
  <note>
uni0552
</note>
  <outline>
    <contour>
      <point x="292" y="493" type="line"/>
      <point x="292" y="423" type="line"/>
      <point x="327" y="423" type="line" smooth="yes"/>
      <point x="345" y="423"/>
      <point x="355" y="417"/>
      <point x="408" y="305" type="curve" smooth="yes"/>
      <point x="453" y="210"/>
      <point x="501" y="183"/>
      <point x="594" y="183" type="curve" smooth="yes"/>
      <point x="722" y="183" type="line"/>
      <point x="722" y="253" type="line"/>
      <point x="707" y="253" type="line" smooth="yes"/>
      <point x="658" y="253"/>
      <point x="644" y="265"/>
      <point x="591" y="374" type="curve" smooth="yes"/>
      <point x="541" y="473"/>
      <point x="514" y="493"/>
      <point x="375" y="493" type="curve" smooth="yes"/>
    </contour>
    <contour>
      <point x="305" y="117" type="curve" smooth="yes"/>
      <point x="305" y="714" type="line"/>
      <point x="68" y="714" type="line"/>
      <point x="68" y="654" type="line"/>
      <point x="104" y="654"/>
      <point x="111" y="643"/>
      <point x="111" y="597" type="curve" smooth="yes"/>
      <point x="111" y="0" type="line"/>
      <point x="348" y="0" type="line"/>
      <point x="348" y="60" type="line"/>
      <point x="313" y="60"/>
      <point x="305" y="71"/>
    </contour>
  </outline>
</glyph>
<glyph name="uni0553" format="2">
  <advance width="908"/>
  <unicode hex="0553"/>
  <note>
uni0553
</note>
  <outline>
    <contour>
      <point x="579" y="134" type="line" smooth="yes"/>
      <point x="811" y="134"/>
      <point x="886" y="264"/>
      <point x="886" y="373" type="curve" smooth="yes"/>
      <point x="886" y="503"/>
      <point x="798" y="590"/>
      <point x="608" y="590" type="curve" smooth="yes"/>
      <point x="543" y="590" type="line"/>
      <point x="543" y="714" type="line"/>
      <point x="322" y="714" type="line"/>
      <point x="322" y="652" type="line"/>
      <point x="353" y="652"/>
      <point x="365" y="642"/>
      <point x="365" y="624" type="curve" smooth="yes"/>
      <point x="365" y="590" type="line"/>
      <point x="301" y="590" type="line" smooth="yes"/>
      <point x="110" y="590"/>
      <point x="22" y="503"/>
      <point x="22" y="373" type="curve" smooth="yes"/>
      <point x="22" y="264"/>
      <point x="97" y="134"/>
      <point x="331" y="134" type="curve" smooth="yes"/>
      <point x="365" y="134" type="line"/>
      <point x="365" y="0" type="line"/>
      <point x="588" y="0" type="line"/>
      <point x="588" y="62" type="line"/>
      <point x="556" y="62"/>
      <point x="543" y="71"/>
      <point x="543" y="100" type="curve" smooth="yes"/>
      <point x="543" y="134" type="line"/>
    </contour>
    <contour>
      <point x="365" y="202" type="line"/>
      <point x="334" y="202" type="line" smooth="yes"/>
      <point x="280" y="202"/>
      <point x="207" y="244"/>
      <point x="207" y="368" type="curve" smooth="yes"/>
      <point x="207" y="477"/>
      <point x="273" y="522"/>
      <point x="317" y="522" type="curve" smooth="yes"/>
      <point x="365" y="522" type="line"/>
    </contour>
    <contour>
      <point x="543" y="522" type="line"/>
      <point x="591" y="522" type="line" smooth="yes"/>
      <point x="635" y="522"/>
      <point x="701" y="477"/>
      <point x="701" y="368" type="curve" smooth="yes"/>
      <point x="701" y="244"/>
      <point x="627" y="202"/>
      <point x="576" y="202" type="curve" smooth="yes"/>
      <point x="543" y="202" type="line"/>
    </contour>
  </outline>
</glyph>
<glyph name="uni0554" format="2">
  <advance width="673"/>
  <unicode hex="0554"/>
  <note>
uni0554
</note>
  <outline>
    <contour>
      <point x="99" y="0" type="line"/>
      <point x="293" y="0" type="line"/>
      <point x="293" y="341" type="line"/>
      <point x="356" y="341" type="line" smooth="yes"/>
      <point x="559" y="341"/>
      <point x="629" y="417"/>
      <point x="629" y="527" type="curve" smooth="yes"/>
      <point x="629" y="650"/>
      <point x="551" y="724"/>
      <point x="371" y="724" type="curve" smooth="yes"/>
      <point x="191" y="724"/>
      <point x="99" y="649"/>
      <point x="99" y="507" type="curve" smooth="yes"/>
    </contour>
    <contour>
      <point x="329" y="411" type="curve" smooth="yes"/>
      <point x="293" y="411" type="line"/>
      <point x="293" y="503" type="line" smooth="yes"/>
      <point x="293" y="627"/>
      <point x="312" y="648"/>
      <point x="363" y="648" type="curve" smooth="yes"/>
      <point x="416" y="648"/>
      <point x="435" y="616"/>
      <point x="435" y="536" type="curve" smooth="yes"/>
      <point x="435" y="459"/>
      <point x="405" y="411"/>
    </contour>
    <contour>
      <point x="34" y="199" type="line"/>
      <point x="621" y="199" type="line"/>
      <point x="621" y="269" type="line"/>
      <point x="34" y="269" type="line"/>
    </contour>
  </outline>
</glyph>
<glyph name="uni0555" format="2">
  <advance width="815"/>
  <unicode hex="0555"/>
  <note>
uni0555
</note>
  <anchor x="407" y="714" name="top"/>
  <outline>
    <contour>
      <point x="408" y="-10" type="curve" smooth="yes"/>
      <point x="629" y="-10"/>
      <point x="761" y="138"/>
      <point x="761" y="358" type="curve" smooth="yes"/>
      <point x="761" y="577"/>
      <point x="629" y="725"/>
      <point x="409" y="725" type="curve" smooth="yes"/>
      <point x="168" y="725"/>
      <point x="54" y="577"/>
      <point x="54" y="359" type="curve" smooth="yes"/>
      <point x="54" y="140"/>
      <point x="169" y="-10"/>
    </contour>
    <contour>
      <point x="408" y="66" type="curve" smooth="yes"/>
      <point x="297" y="66"/>
      <point x="261" y="174"/>
      <point x="261" y="358" type="curve" smooth="yes"/>
      <point x="261" y="542"/>
      <point x="297" y="649"/>
      <point x="409" y="649" type="curve" smooth="yes"/>
      <point x="516" y="649"/>
      <point x="554" y="542"/>
      <point x="554" y="358" type="curve" smooth="yes"/>
      <point x="554" y="173"/>
      <point x="518" y="66"/>
    </contour>
  </outline>
</glyph>
<glyph name="uni0556" format="2">
  <advance width="778"/>
  <unicode hex="0556"/>
  <note>
uni0556
</note>
  <outline>
    <contour>
      <point x="385" y="-10" type="curve" smooth="yes"/>
      <point x="670" y="-10"/>
      <point x="740" y="82"/>
      <point x="740" y="189" type="curve" smooth="yes"/>
      <point x="740" y="305"/>
      <point x="680" y="366"/>
      <point x="408" y="406" type="curve" smooth="yes"/>
      <point x="242" y="430"/>
      <point x="226" y="462"/>
      <point x="226" y="538" type="curve" smooth="yes"/>
      <point x="226" y="615"/>
      <point x="258" y="652"/>
      <point x="311" y="652" type="curve"/>
      <point x="311" y="724" type="line"/>
      <point x="160" y="724"/>
      <point x="53" y="641"/>
      <point x="53" y="538" type="curve" smooth="yes"/>
      <point x="53" y="416"/>
      <point x="95" y="378"/>
      <point x="330" y="344" type="curve" smooth="yes"/>
      <point x="530" y="315"/>
      <point x="566" y="275"/>
      <point x="566" y="179" type="curve" smooth="yes"/>
      <point x="566" y="101"/>
      <point x="539" y="60"/>
      <point x="361" y="60" type="curve" smooth="yes"/>
      <point x="217" y="60"/>
      <point x="160" y="118"/>
      <point x="160" y="252" type="curve"/>
      <point x="90" y="252"/>
      <point x="27" y="210"/>
      <point x="27" y="127" type="curve" smooth="yes"/>
      <point x="27" y="67"/>
      <point x="115" y="-10"/>
    </contour>
    <contour>
      <point x="311" y="724" type="line"/>
      <point x="311" y="5" type="line"/>
      <point x="487" y="5" type="line"/>
      <point x="487" y="724" type="line"/>
    </contour>
  </outline>
</glyph>
<glyph name="uni0559" format="2">
  <advance width="269"/>
  <unicode hex="0559"/>
  <note>
uni0559
</note>
  <outline>
    <contour>
      <point x="224" y="393" type="curve"/>
      <point x="224" y="551" type="line"/>
      <point x="184" y="555"/>
      <point x="157" y="574"/>
      <point x="157" y="621" type="curve" smooth="yes"/>
      <point x="157" y="660"/>
      <point x="180" y="684"/>
      <point x="231" y="698" type="curve"/>
      <point x="209" y="760" type="line"/>
      <point x="99" y="730"/>
      <point x="38" y="656"/>
      <point x="38" y="557" type="curve" smooth="yes"/>
      <point x="38" y="458"/>
      <point x="99" y="396"/>
    </contour>
  </outline>
</glyph>
<glyph name="uni055A" format="2">
  <advance width="269"/>
  <unicode hex="055A"/>
  <note>
uni055A
</note>
  <outline>
    <contour>
      <point x="45" y="760" type="curve"/>
      <point x="45" y="602" type="line"/>
      <point x="85" y="598"/>
      <point x="111" y="580"/>
      <point x="111" y="537" type="curve" smooth="yes"/>
      <point x="111" y="493"/>
      <point x="89" y="469"/>
      <point x="38" y="455" type="curve"/>
      <point x="59" y="393" type="line"/>
      <point x="170" y="423"/>
      <point x="231" y="497"/>
      <point x="231" y="597" type="curve" smooth="yes"/>
      <point x="231" y="695"/>
      <point x="169" y="757"/>
    </contour>
  </outline>
</glyph>
<glyph name="uni055B" format="2">
  <advance width="253"/>
  <unicode hex="055B"/>
  <note>
uni055B
</note>
  <outline>
    <contour>
      <point x="42" y="603" type="line"/>
      <point x="144" y="603" type="line"/>
      <point x="172" y="666"/>
      <point x="195" y="737"/>
      <point x="213" y="798" type="curve"/>
      <point x="203" y="814" type="line"/>
      <point x="71" y="814" type="line"/>
      <point x="68" y="786"/>
      <point x="62" y="742"/>
      <point x="54" y="698" type="curve" smooth="yes"/>
      <point x="42" y="628" type="line"/>
    </contour>
  </outline>
</glyph>
<glyph name="uni055C" format="2">
  <advance width="321"/>
  <unicode hex="055C"/>
  <note>
uni055C
</note>
  <outline>
    <contour>
      <point x="79" y="603" type="curve"/>
      <point x="200" y="603" type="line"/>
      <point x="200" y="615" type="line" smooth="yes"/>
      <point x="200" y="635"/>
      <point x="208" y="657"/>
      <point x="238" y="675" type="curve" smooth="yes"/>
      <point x="300" y="713"/>
      <point x="311" y="740"/>
      <point x="311" y="814" type="curve"/>
      <point x="190" y="814" type="line"/>
      <point x="190" y="789" type="line" smooth="yes"/>
      <point x="190" y="777"/>
      <point x="181" y="761"/>
      <point x="170" y="755" type="curve" smooth="yes"/>
      <point x="104" y="715"/>
      <point x="79" y="692"/>
    </contour>
  </outline>
</glyph>
<glyph name="uni055D" format="2">
  <advance width="253"/>
  <unicode hex="055D"/>
  <note>
uni055D
</note>
  <outline>
    <contour>
      <point x="210" y="603" type="line"/>
      <point x="210" y="628" type="line"/>
      <point x="198" y="698" type="line" smooth="yes"/>
      <point x="190" y="742"/>
      <point x="184" y="786"/>
      <point x="181" y="814" type="curve"/>
      <point x="49" y="814" type="line"/>
      <point x="39" y="798" type="line"/>
      <point x="57" y="737"/>
      <point x="80" y="666"/>
      <point x="108" y="603" type="curve"/>
    </contour>
  </outline>
</glyph>
<glyph name="uni055E" format="2">
  <advance width="537"/>
  <unicode hex="055E"/>
  <note>
uni055E
</note>
  <outline>
    <contour>
      <point x="81" y="533" type="curve"/>
      <point x="231" y="533" type="line"/>
      <point x="231" y="631"/>
      <point x="241" y="747"/>
      <point x="313" y="747" type="curve" smooth="yes"/>
      <point x="340" y="747"/>
      <point x="357" y="728"/>
      <point x="357" y="702" type="curve" smooth="yes"/>
      <point x="357" y="671"/>
      <point x="336" y="650"/>
      <point x="305" y="650" type="curve" smooth="yes"/>
      <point x="284" y="650"/>
      <point x="266" y="656"/>
      <point x="254" y="663" type="curve"/>
      <point x="254" y="605"/>
      <point x="303" y="565"/>
      <point x="372" y="565" type="curve" smooth="yes"/>
      <point x="458" y="565"/>
      <point x="508" y="617"/>
      <point x="508" y="692" type="curve" smooth="yes"/>
      <point x="508" y="774"/>
      <point x="429" y="830"/>
      <point x="327" y="830" type="curve" smooth="yes"/>
      <point x="183" y="830"/>
      <point x="81" y="708"/>
    </contour>
  </outline>
</glyph>
<glyph name="uni055F" format="2">
  <advance width="451"/>
  <unicode hex="055F"/>
  <note>
uni055F
</note>
  <outline>
    <contour>
      <point x="254" y="601" type="curve" smooth="yes"/>
      <point x="415" y="601" type="line"/>
      <point x="415" y="689" type="line"/>
      <point x="276" y="689" type="line" smooth="yes"/>
      <point x="210" y="689"/>
      <point x="184" y="703"/>
      <point x="184" y="742" type="curve" smooth="yes"/>
      <point x="184" y="769"/>
      <point x="203" y="784"/>
      <point x="239" y="784" type="curve" smooth="yes"/>
      <point x="262" y="784"/>
      <point x="288" y="779"/>
      <point x="303" y="772" type="curve"/>
      <point x="303" y="828"/>
      <point x="256" y="877"/>
      <point x="185" y="877" type="curve" smooth="yes"/>
      <point x="98" y="877"/>
      <point x="49" y="825"/>
      <point x="49" y="742" type="curve" smooth="yes"/>
      <point x="49" y="651"/>
      <point x="116" y="601"/>
    </contour>
  </outline>
</glyph>
<glyph name="uni0560" format="2">
  <advance width="918"/>
  <unicode hex="0560"/>
  <note>
uni0561
</note>
  <anchor x="461" y="492" name="top"/>
  <outline>
    <contour>
      <point x="293" y="0" type="line"/>
      <point x="293" y="62" type="line"/>
      <point x="256" y="62"/>
      <point x="253" y="76"/>
      <point x="253" y="105" type="curve" smooth="yes"/>
      <point x="253" y="258" type="line" smooth="yes"/>
      <point x="253" y="336"/>
      <point x="266" y="405"/>
      <point x="317" y="405" type="curve" smooth="yes"/>
      <point x="354" y="405"/>
      <point x="368" y="358"/>
      <point x="368" y="275" type="curve" smooth="yes"/>
      <point x="368" y="0" type="line"/>
      <point x="594" y="0" type="line"/>
      <point x="594" y="62" type="line"/>
      <point x="560" y="62"/>
      <point x="554" y="73"/>
      <point x="554" y="105" type="curve" smooth="yes"/>
      <point x="554" y="269" type="line" smooth="yes"/>
      <point x="554" y="342"/>
      <point x="573" y="405"/>
      <point x="619" y="405" type="curve" smooth="yes"/>
      <point x="665" y="405"/>
      <point x="669" y="358"/>
      <point x="669" y="275" type="curve" smooth="yes"/>
      <point x="669" y="0" type="line"/>
      <point x="895" y="0" type="line"/>
      <point x="895" y="62" type="line"/>
      <point x="861" y="62"/>
      <point x="856" y="67"/>
      <point x="856" y="97" type="curve" smooth="yes"/>
      <point x="856" y="311" type="line" smooth="yes"/>
      <point x="856" y="451"/>
      <point x="805" y="507"/>
      <point x="707" y="507" type="curve" smooth="yes"/>
      <point x="661" y="507"/>
      <point x="595" y="498"/>
      <point x="550" y="428" type="curve"/>
      <point x="539" y="428" type="line"/>
      <point x="513" y="488"/>
      <point x="467" y="507"/>
      <point x="403" y="507" type="curve" smooth="yes"/>
      <point x="342" y="507"/>
      <point x="298" y="494"/>
      <point x="253" y="427" type="curve"/>
      <point x="248" y="427" type="line"/>
      <point x="233" y="492" type="line"/>
      <point x="27" y="492" type="line"/>
      <point x="27" y="434" type="line"/>
      <point x="62" y="434"/>
      <point x="67" y="424"/>
      <point x="67" y="401" type="curve" smooth="yes"/>
      <point x="67" y="0" type="line"/>
    </contour>
  </outline>
</glyph>
<glyph name="uni0561" format="2">
  <advance width="918"/>
  <unicode hex="0561"/>
  <note>
uni0561
</note>
  <anchor x="457" y="492" name="top"/>
  <outline>
    <contour>
      <point x="625" y="492" type="line"/>
      <point x="625" y="430" type="line"/>
      <point x="662" y="430"/>
      <point x="665" y="416"/>
      <point x="665" y="387" type="curve" smooth="yes"/>
      <point x="665" y="234" type="line" smooth="yes"/>
      <point x="665" y="156"/>
      <point x="652" y="87"/>
      <point x="601" y="87" type="curve" smooth="yes"/>
      <point x="564" y="87"/>
      <point x="550" y="134"/>
      <point x="550" y="217" type="curve" smooth="yes"/>
      <point x="550" y="492" type="line"/>
      <point x="324" y="492" type="line"/>
      <point x="324" y="430" type="line"/>
      <point x="358" y="430"/>
      <point x="364" y="419"/>
      <point x="364" y="387" type="curve" smooth="yes"/>
      <point x="364" y="223" type="line" smooth="yes"/>
      <point x="364" y="150"/>
      <point x="345" y="87"/>
      <point x="299" y="87" type="curve" smooth="yes"/>
      <point x="253" y="87"/>
      <point x="249" y="134"/>
      <point x="249" y="217" type="curve" smooth="yes"/>
      <point x="249" y="492" type="line"/>
      <point x="23" y="492" type="line"/>
      <point x="23" y="430" type="line"/>
      <point x="57" y="430"/>
      <point x="62" y="425"/>
      <point x="62" y="395" type="curve" smooth="yes"/>
      <point x="62" y="181" type="line" smooth="yes"/>
      <point x="62" y="41"/>
      <point x="113" y="-15"/>
      <point x="211" y="-15" type="curve" smooth="yes"/>
      <point x="257" y="-15"/>
      <point x="323" y="-6"/>
      <point x="368" y="64" type="curve"/>
      <point x="379" y="64" type="line"/>
      <point x="405" y="4"/>
      <point x="451" y="-15"/>
      <point x="515" y="-15" type="curve" smooth="yes"/>
      <point x="576" y="-15"/>
      <point x="620" y="-2"/>
      <point x="665" y="65" type="curve"/>
      <point x="670" y="65" type="line"/>
      <point x="685" y="0" type="line"/>
      <point x="891" y="0" type="line"/>
      <point x="891" y="58" type="line"/>
      <point x="856" y="58"/>
      <point x="851" y="68"/>
      <point x="851" y="91" type="curve" smooth="yes"/>
      <point x="851" y="492" type="line"/>
    </contour>
  </outline>
</glyph>
<glyph name="uni0562" format="2">
  <advance width="627"/>
  <unicode hex="0562"/>
  <note>
uni0562
</note>
  <outline>
    <contour>
      <point x="253" y="-161" type="curve" smooth="yes"/>
      <point x="253" y="258" type="line" smooth="yes"/>
      <point x="253" y="338"/>
      <point x="263" y="400"/>
      <point x="319" y="400" type="curve" smooth="yes"/>
      <point x="365" y="400"/>
      <point x="379" y="351"/>
      <point x="379" y="270" type="curve" smooth="yes"/>
      <point x="379" y="209" type="line"/>
      <point x="604" y="209" type="line"/>
      <point x="604" y="271" type="line"/>
      <point x="569" y="271"/>
      <point x="565" y="282"/>
      <point x="565" y="298" type="curve" smooth="yes"/>
      <point x="565" y="321" type="line" smooth="yes"/>
      <point x="565" y="445"/>
      <point x="503" y="502"/>
      <point x="404" y="502" type="curve" smooth="yes"/>
      <point x="342" y="502"/>
      <point x="289" y="484"/>
      <point x="254" y="424" type="curve"/>
      <point x="249" y="424" type="line"/>
      <point x="233" y="492" type="line"/>
      <point x="29" y="492" type="line"/>
      <point x="29" y="430" type="line"/>
      <point x="52" y="430"/>
      <point x="67" y="420"/>
      <point x="67" y="389" type="curve" smooth="yes"/>
      <point x="67" y="-265" type="line"/>
      <point x="293" y="-265" type="line"/>
      <point x="293" y="-203" type="line"/>
      <point x="259" y="-203"/>
      <point x="253" y="-192"/>
    </contour>
    <contour>
      <point x="250" y="0" type="line"/>
      <point x="603" y="0" type="line"/>
      <point x="603" y="70" type="line"/>
      <point x="250" y="70" type="line"/>
    </contour>
  </outline>
</glyph>
<glyph name="uni0563" format="2">
  <advance width="692"/>
  <unicode hex="0563"/>
  <note>
uni0563
</note>
  <outline>
    <contour>
      <point x="423" y="492" type="line"/>
      <point x="399" y="429" type="line"/>
      <point x="390" y="429" type="line"/>
      <point x="358" y="483"/>
      <point x="315" y="502"/>
      <point x="259" y="502" type="curve" smooth="yes"/>
      <point x="127" y="502"/>
      <point x="55" y="409"/>
      <point x="55" y="249" type="curve" smooth="yes"/>
      <point x="55" y="85"/>
      <point x="128" y="-9"/>
      <point x="259" y="-9" type="curve" smooth="yes"/>
      <point x="307" y="-9"/>
      <point x="343" y="11"/>
      <point x="379" y="64" type="curve"/>
      <point x="390" y="64" type="line"/>
      <point x="383" y="-15"/>
      <point x="381" y="-43"/>
      <point x="381" y="-62" type="curve" smooth="yes"/>
      <point x="381" y="-265" type="line"/>
      <point x="604" y="-265" type="line"/>
      <point x="604" y="-207" type="line"/>
      <point x="573" y="-207"/>
      <point x="567" y="-199"/>
      <point x="567" y="-162" type="curve" smooth="yes"/>
      <point x="567" y="492" type="line"/>
    </contour>
    <contour>
      <point x="311" y="78" type="curve" smooth="yes"/>
      <point x="250" y="78"/>
      <point x="244" y="172"/>
      <point x="244" y="248" type="curve" smooth="yes"/>
      <point x="244" y="325"/>
      <point x="248" y="414"/>
      <point x="308" y="414" type="curve" smooth="yes"/>
      <point x="361" y="414"/>
      <point x="390" y="374"/>
      <point x="390" y="247" type="curve" smooth="yes"/>
      <point x="390" y="138"/>
      <point x="369" y="78"/>
    </contour>
    <contour>
      <point x="518" y="0" type="line"/>
      <point x="686" y="0" type="line"/>
      <point x="686" y="70" type="line"/>
      <point x="518" y="70" type="line"/>
    </contour>
  </outline>
</glyph>
<glyph name="uni0564" format="2">
  <advance width="685"/>
  <unicode hex="0564"/>
  <note>
uni0564
</note>
  <outline>
    <contour>
      <point x="559" y="-160" type="curve" smooth="yes"/>
      <point x="559" y="307" type="line" smooth="yes"/>
      <point x="559" y="445"/>
      <point x="497" y="502"/>
      <point x="400" y="502" type="curve" smooth="yes"/>
      <point x="337" y="502"/>
      <point x="295" y="497"/>
      <point x="254" y="425" type="curve"/>
      <point x="249" y="425" type="line"/>
      <point x="233" y="492" type="line"/>
      <point x="29" y="492" type="line"/>
      <point x="29" y="430" type="line"/>
      <point x="52" y="430"/>
      <point x="67" y="420"/>
      <point x="67" y="389" type="curve" smooth="yes"/>
      <point x="67" y="0" type="line"/>
      <point x="293" y="0" type="line"/>
      <point x="293" y="62" type="line"/>
      <point x="259" y="62"/>
      <point x="253" y="73"/>
      <point x="253" y="104" type="curve" smooth="yes"/>
      <point x="253" y="258" type="line" smooth="yes"/>
      <point x="253" y="338"/>
      <point x="263" y="400"/>
      <point x="315" y="400" type="curve" smooth="yes"/>
      <point x="360" y="400"/>
      <point x="373" y="355"/>
      <point x="373" y="270" type="curve" smooth="yes"/>
      <point x="373" y="-266" type="line"/>
      <point x="599" y="-266" type="line"/>
      <point x="599" y="-204" type="line"/>
      <point x="563" y="-204"/>
      <point x="559" y="-194"/>
    </contour>
    <contour>
      <point x="508" y="0" type="line"/>
      <point x="679" y="0" type="line"/>
      <point x="679" y="70" type="line"/>
      <point x="508" y="70" type="line"/>
    </contour>
  </outline>
</glyph>
<glyph name="uni0565" format="2">
  <advance width="621"/>
  <unicode hex="0565"/>
  <note>
uni0565
</note>
  <outline>
    <contour>
      <point x="554" y="320" type="line"/>
      <point x="368" y="320" type="line"/>
      <point x="368" y="234" type="line" smooth="yes"/>
      <point x="368" y="156"/>
      <point x="364" y="88"/>
      <point x="307" y="88" type="curve" smooth="yes"/>
      <point x="263" y="88"/>
      <point x="248" y="131"/>
      <point x="248" y="214" type="curve" smooth="yes"/>
      <point x="248" y="760" type="line"/>
      <point x="22" y="760" type="line"/>
      <point x="22" y="698" type="line"/>
      <point x="58" y="698"/>
      <point x="62" y="687"/>
      <point x="62" y="653" type="curve" smooth="yes"/>
      <point x="62" y="179" type="line" smooth="yes"/>
      <point x="62" y="43"/>
      <point x="123" y="-14"/>
      <point x="222" y="-14" type="curve" smooth="yes"/>
      <point x="279" y="-14"/>
      <point x="324" y="-14"/>
      <point x="368" y="65" type="curve"/>
      <point x="373" y="65" type="line"/>
      <point x="389" y="0" type="line"/>
      <point x="594" y="0" type="line"/>
      <point x="594" y="62" type="line"/>
      <point x="570" y="62"/>
      <point x="554" y="72"/>
      <point x="554" y="103" type="curve" smooth="yes"/>
    </contour>
    <contour>
      <point x="221" y="422" type="line"/>
      <point x="575" y="422" type="line"/>
      <point x="575" y="492" type="line"/>
      <point x="221" y="492" type="line"/>
    </contour>
  </outline>
</glyph>
<glyph name="uni0567" format="2">
  <advance width="583"/>
  <unicode hex="0567"/>
  <note>
uni0567
</note>
  <outline>
    <contour>
      <point x="539" y="422" type="line"/>
      <point x="539" y="492" type="line"/>
      <point x="256" y="492" type="line"/>
      <point x="256" y="760" type="line"/>
      <point x="30" y="760" type="line"/>
      <point x="30" y="700" type="line"/>
      <point x="63" y="700"/>
      <point x="70" y="690"/>
      <point x="70" y="667" type="curve" smooth="yes"/>
      <point x="70" y="9" type="line"/>
      <point x="81" y="0" type="line"/>
      <point x="88" y="0" type="line"/>
      <point x="143" y="21"/>
      <point x="208" y="34"/>
      <point x="274" y="34" type="curve" smooth="yes"/>
      <point x="339" y="34"/>
      <point x="372" y="14"/>
      <point x="372" y="-29" type="curve" smooth="yes"/>
      <point x="372" y="-87"/>
      <point x="338" y="-120"/>
      <point x="224" y="-120" type="curve"/>
      <point x="224" y="-161"/>
      <point x="277" y="-202"/>
      <point x="356" y="-202" type="curve" smooth="yes"/>
      <point x="447" y="-202"/>
      <point x="533" y="-141"/>
      <point x="533" y="-31" type="curve" smooth="yes"/>
      <point x="533" y="58"/>
      <point x="460" y="121"/>
      <point x="348" y="121" type="curve" smooth="yes"/>
      <point x="314" y="121"/>
      <point x="283" y="114"/>
      <point x="256" y="106" type="curve"/>
      <point x="256" y="422" type="line"/>
    </contour>
  </outline>
</glyph>
<glyph name="uni0568" format="2">
  <advance width="618"/>
  <unicode hex="0568"/>
  <note>
uni0568
</note>
  <outline>
    <contour>
      <point x="559" y="107" type="curve" smooth="yes"/>
      <point x="559" y="307" type="line" smooth="yes"/>
      <point x="559" y="445"/>
      <point x="497" y="502"/>
      <point x="400" y="502" type="curve" smooth="yes"/>
      <point x="337" y="502"/>
      <point x="291" y="492"/>
      <point x="254" y="425" type="curve"/>
      <point x="249" y="425" type="line"/>
      <point x="233" y="492" type="line"/>
      <point x="29" y="492" type="line"/>
      <point x="29" y="430" type="line"/>
      <point x="52" y="430"/>
      <point x="67" y="420"/>
      <point x="67" y="389" type="curve" smooth="yes"/>
      <point x="67" y="-265" type="line"/>
      <point x="253" y="-265" type="line"/>
      <point x="253" y="258" type="line" smooth="yes"/>
      <point x="253" y="338"/>
      <point x="263" y="400"/>
      <point x="315" y="400" type="curve" smooth="yes"/>
      <point x="360" y="400"/>
      <point x="373" y="355"/>
      <point x="373" y="270" type="curve" smooth="yes"/>
      <point x="373" y="0" type="line"/>
      <point x="599" y="0" type="line"/>
      <point x="599" y="62" type="line"/>
      <point x="563" y="62"/>
      <point x="559" y="73"/>
    </contour>
    <contour>
      <point x="77" y="-265" type="line"/>
      <point x="596" y="-265" type="line"/>
      <point x="596" y="-195" type="line"/>
      <point x="77" y="-195" type="line"/>
    </contour>
  </outline>
</glyph>
<glyph name="uni0569" format="2">
  <advance width="816"/>
  <unicode hex="0569"/>
  <note>
uni0569
</note>
  <outline>
    <contour>
      <point x="93" y="-265" type="line"/>
      <point x="318" y="-265" type="line"/>
      <point x="318" y="-207" type="line"/>
      <point x="285" y="-207"/>
      <point x="280" y="-199"/>
      <point x="280" y="-150" type="curve" smooth="yes"/>
      <point x="280" y="258" type="line" smooth="yes"/>
      <point x="280" y="358"/>
      <point x="322" y="413"/>
      <point x="419" y="413" type="curve" smooth="yes"/>
      <point x="508" y="413"/>
      <point x="548" y="372"/>
      <point x="548" y="247" type="curve" smooth="yes"/>
      <point x="548" y="90"/>
      <point x="539" y="60"/>
      <point x="513" y="60" type="curve" smooth="yes"/>
      <point x="491" y="60"/>
      <point x="475" y="88"/>
      <point x="475" y="142" type="curve" smooth="yes"/>
      <point x="475" y="202"/>
      <point x="493" y="231"/>
      <point x="526" y="231" type="curve" smooth="yes"/>
      <point x="589" y="231"/>
      <point x="691" y="214"/>
      <point x="787" y="183" type="curve"/>
      <point x="806" y="246" type="line"/>
      <point x="712" y="280"/>
      <point x="610" y="301"/>
      <point x="499" y="301" type="curve" smooth="yes"/>
      <point x="383" y="301"/>
      <point x="312" y="239"/>
      <point x="312" y="153" type="curve" smooth="yes"/>
      <point x="312" y="51"/>
      <point x="372" y="-10"/>
      <point x="495" y="-10" type="curve" smooth="yes"/>
      <point x="667" y="-10"/>
      <point x="731" y="102"/>
      <point x="731" y="244" type="curve" smooth="yes"/>
      <point x="731" y="406"/>
      <point x="623" y="502"/>
      <point x="478" y="502" type="curve" smooth="yes"/>
      <point x="393" y="502"/>
      <point x="325" y="479"/>
      <point x="280" y="427" type="curve"/>
      <point x="275" y="427" type="line"/>
      <point x="260" y="492" type="line"/>
      <point x="55" y="492" type="line"/>
      <point x="55" y="432" type="line"/>
      <point x="88" y="432"/>
      <point x="93" y="421"/>
      <point x="93" y="372" type="curve" smooth="yes"/>
    </contour>
  </outline>
</glyph>
<glyph name="uni056A" format="2">
  <advance width="695"/>
  <unicode hex="056A"/>
  <note>
uni056A
</note>
  <outline>
    <contour>
      <point x="371" y="492" type="line"/>
      <point x="336" y="492" type="line" smooth="yes"/>
      <point x="129" y="488"/>
      <point x="41" y="406"/>
      <point x="41" y="247" type="curve" smooth="yes"/>
      <point x="41" y="91"/>
      <point x="133" y="-9"/>
      <point x="284" y="-9" type="curve" smooth="yes"/>
      <point x="436" y="-9"/>
      <point x="557" y="91"/>
      <point x="557" y="251" type="curve" smooth="yes"/>
      <point x="557" y="760" type="line"/>
      <point x="331" y="760" type="line"/>
      <point x="331" y="700" type="line"/>
      <point x="365" y="700"/>
      <point x="371" y="693"/>
      <point x="371" y="662" type="curve" smooth="yes"/>
    </contour>
    <contour>
      <point x="343" y="422" type="curve" smooth="yes"/>
      <point x="371" y="422" type="line"/>
      <point x="371" y="248" type="line" smooth="yes"/>
      <point x="371" y="148"/>
      <point x="362" y="62"/>
      <point x="296" y="62" type="curve" smooth="yes"/>
      <point x="240" y="62"/>
      <point x="230" y="163"/>
      <point x="230" y="245" type="curve" smooth="yes"/>
      <point x="230" y="379"/>
      <point x="245" y="422"/>
    </contour>
    <contour>
      <point x="547" y="492" type="line"/>
      <point x="547" y="422" type="line"/>
      <point x="691" y="422" type="line"/>
      <point x="691" y="492" type="line"/>
    </contour>
  </outline>
</glyph>
<glyph name="uni056B" format="2">
  <advance width="621"/>
  <unicode hex="056B"/>
  <note>
uni056B
</note>
  <outline>
    <contour>
      <point x="599" y="62" type="line"/>
      <point x="563" y="62"/>
      <point x="559" y="73"/>
      <point x="559" y="107" type="curve" smooth="yes"/>
      <point x="559" y="307" type="line" smooth="yes"/>
      <point x="559" y="445"/>
      <point x="497" y="502"/>
      <point x="400" y="502" type="curve" smooth="yes"/>
      <point x="337" y="502"/>
      <point x="287" y="481"/>
      <point x="254" y="425" type="curve"/>
      <point x="249" y="425" type="line"/>
      <point x="251" y="446"/>
      <point x="253" y="468"/>
      <point x="253" y="491" type="curve" smooth="yes"/>
      <point x="253" y="760" type="line"/>
      <point x="29" y="760" type="line"/>
      <point x="29" y="698" type="line"/>
      <point x="52" y="698"/>
      <point x="67" y="688"/>
      <point x="67" y="657" type="curve" smooth="yes"/>
      <point x="67" y="-265" type="line"/>
      <point x="293" y="-265" type="line"/>
      <point x="293" y="-203" type="line"/>
      <point x="259" y="-203"/>
      <point x="253" y="-192"/>
      <point x="253" y="-161" type="curve" smooth="yes"/>
      <point x="253" y="258" type="line" smooth="yes"/>
      <point x="253" y="338"/>
      <point x="263" y="400"/>
      <point x="315" y="400" type="curve" smooth="yes"/>
      <point x="360" y="400"/>
      <point x="373" y="355"/>
      <point x="373" y="270" type="curve" smooth="yes"/>
      <point x="373" y="0" type="line"/>
      <point x="599" y="0" type="line"/>
    </contour>
  </outline>
</glyph>
<glyph name="uni056C" format="2">
  <advance width="411"/>
  <unicode hex="056C"/>
  <note>
uni056C
</note>
  <outline>
    <contour>
      <point x="432" y="-159" type="line"/>
      <point x="371" y="-159" type="line"/>
      <point x="371" y="-191"/>
      <point x="361" y="-195"/>
      <point x="321" y="-195" type="curve" smooth="yes"/>
      <point x="255" y="-195" type="line"/>
      <point x="255" y="492" type="line"/>
      <point x="16" y="492" type="line"/>
      <point x="16" y="430" type="line"/>
      <point x="28" y="430" type="line" smooth="yes"/>
      <point x="59" y="430"/>
      <point x="68" y="424"/>
      <point x="68" y="381" type="curve" smooth="yes"/>
      <point x="68" y="-265" type="line"/>
      <point x="432" y="-265" type="line"/>
    </contour>
  </outline>
</glyph>
<glyph name="uni056D" format="2">
  <advance width="932"/>
  <unicode hex="056D"/>
  <note>
uni056D
</note>
  <outline>
    <contour>
      <point x="865" y="103" type="curve" smooth="yes"/>
      <point x="865" y="492" type="line"/>
      <point x="639" y="492" type="line"/>
      <point x="639" y="430" type="line"/>
      <point x="673" y="430"/>
      <point x="679" y="419"/>
      <point x="679" y="388" type="curve" smooth="yes"/>
      <point x="679" y="234" type="line" smooth="yes"/>
      <point x="679" y="156"/>
      <point x="675" y="88"/>
      <point x="618" y="88" type="curve" smooth="yes"/>
      <point x="574" y="88"/>
      <point x="559" y="131"/>
      <point x="559" y="214" type="curve" smooth="yes"/>
      <point x="559" y="307" type="line" smooth="yes"/>
      <point x="559" y="445"/>
      <point x="497" y="502"/>
      <point x="400" y="502" type="curve" smooth="yes"/>
      <point x="337" y="502"/>
      <point x="290" y="488"/>
      <point x="254" y="425" type="curve"/>
      <point x="249" y="425" type="line"/>
      <point x="251" y="446"/>
      <point x="253" y="468"/>
      <point x="253" y="493" type="curve" smooth="yes"/>
      <point x="253" y="760" type="line"/>
      <point x="29" y="760" type="line"/>
      <point x="29" y="698" type="line"/>
      <point x="52" y="698"/>
      <point x="67" y="688"/>
      <point x="67" y="657" type="curve" smooth="yes"/>
      <point x="67" y="-265" type="line"/>
      <point x="293" y="-265" type="line"/>
      <point x="293" y="-203" type="line"/>
      <point x="259" y="-203"/>
      <point x="253" y="-192"/>
      <point x="253" y="-161" type="curve" smooth="yes"/>
      <point x="253" y="258" type="line" smooth="yes"/>
      <point x="253" y="338"/>
      <point x="263" y="400"/>
      <point x="315" y="400" type="curve" smooth="yes"/>
      <point x="360" y="400"/>
      <point x="373" y="355"/>
      <point x="373" y="270" type="curve" smooth="yes"/>
      <point x="373" y="179" type="line" smooth="yes"/>
      <point x="373" y="43"/>
      <point x="434" y="-14"/>
      <point x="533" y="-14" type="curve" smooth="yes"/>
      <point x="590" y="-14"/>
      <point x="635" y="-4"/>
      <point x="679" y="65" type="curve"/>
      <point x="684" y="65" type="line"/>
      <point x="700" y="0" type="line"/>
      <point x="905" y="0" type="line"/>
      <point x="905" y="62" type="line"/>
      <point x="881" y="62"/>
      <point x="865" y="72"/>
    </contour>
  </outline>
</glyph>
<glyph name="uni056E" format="2">
  <advance width="622"/>
  <unicode hex="056E"/>
  <note>
uni056E
</note>
  <outline>
    <contour>
      <point x="291" y="-10" type="curve" smooth="yes"/>
      <point x="477" y="-10"/>
      <point x="568" y="71"/>
      <point x="568" y="256" type="curve" smooth="yes"/>
      <point x="568" y="311"/>
      <point x="547" y="376"/>
      <point x="516" y="422" type="curve"/>
      <point x="607" y="422" type="line"/>
      <point x="607" y="492" type="line"/>
      <point x="270" y="492" type="line" smooth="yes"/>
      <point x="147" y="492"/>
      <point x="42" y="406"/>
      <point x="42" y="228" type="curve" smooth="yes"/>
      <point x="42" y="82"/>
      <point x="127" y="-10"/>
    </contour>
    <contour>
      <point x="296" y="65" type="curve" smooth="yes"/>
      <point x="253" y="65"/>
      <point x="232" y="112"/>
      <point x="232" y="227" type="curve" smooth="yes"/>
      <point x="232" y="373"/>
      <point x="253" y="422"/>
      <point x="309" y="422" type="curve" smooth="yes"/>
      <point x="333" y="422" type="line"/>
      <point x="357" y="396"/>
      <point x="378" y="329"/>
      <point x="378" y="254" type="curve" smooth="yes"/>
      <point x="378" y="112"/>
      <point x="356" y="65"/>
    </contour>
    <contour>
      <point x="290" y="483" type="curve"/>
      <point x="468" y="483" type="line"/>
      <point x="452" y="498"/>
      <point x="419" y="537"/>
      <point x="399" y="565" type="curve" smooth="yes"/>
      <point x="377" y="596"/>
      <point x="367" y="617"/>
      <point x="367" y="635" type="curve" smooth="yes"/>
      <point x="367" y="657"/>
      <point x="379" y="676"/>
      <point x="399" y="706" type="curve"/>
      <point x="365" y="739"/>
      <point x="315" y="763"/>
      <point x="270" y="763" type="curve" smooth="yes"/>
      <point x="207" y="763"/>
      <point x="160" y="726"/>
      <point x="160" y="678" type="curve" smooth="yes"/>
      <point x="160" y="652"/>
      <point x="169" y="628"/>
      <point x="199" y="588" type="curve" smooth="yes"/>
      <point x="238" y="536"/>
      <point x="270" y="501"/>
    </contour>
  </outline>
</glyph>
<glyph name="uni0570" format="2">
  <advance width="593"/>
  <unicode hex="0570"/>
  <note>
uni0570
</note>
  <outline>
    <contour>
      <point x="229" y="173" type="line"/>
      <point x="243" y="238"/>
      <point x="268" y="259"/>
      <point x="294" y="259" type="curve" smooth="yes"/>
      <point x="331" y="259"/>
      <point x="350" y="232"/>
      <point x="350" y="135" type="curve" smooth="yes"/>
      <point x="350" y="0" type="line"/>
      <point x="569" y="0" type="line"/>
      <point x="569" y="62" type="line"/>
      <point x="540" y="62"/>
      <point x="536" y="73"/>
      <point x="536" y="121" type="curve" smooth="yes"/>
      <point x="536" y="177" type="line" smooth="yes"/>
      <point x="536" y="303"/>
      <point x="481" y="361"/>
      <point x="378" y="361" type="curve" smooth="yes"/>
      <point x="311" y="361"/>
      <point x="264" y="332"/>
      <point x="232" y="283" type="curve"/>
      <point x="223" y="283" type="line"/>
      <point x="233" y="558"/>
      <point x="271" y="694"/>
      <point x="344" y="694" type="curve" smooth="yes"/>
      <point x="391" y="694"/>
      <point x="410" y="658"/>
      <point x="410" y="556" type="curve"/>
      <point x="515" y="556"/>
      <point x="567" y="588"/>
      <point x="567" y="654" type="curve" smooth="yes"/>
      <point x="567" y="716"/>
      <point x="492" y="764"/>
      <point x="376" y="764" type="curve" smooth="yes"/>
      <point x="133" y="764"/>
      <point x="34" y="550"/>
      <point x="34" y="224" type="curve"/>
    </contour>
  </outline>
</glyph>
<glyph name="uni0571" format="2">
  <advance width="631"/>
  <unicode hex="0571"/>
  <note>
uni0571
</note>
  <outline>
    <contour>
      <point x="217" y="-9" type="curve" smooth="yes"/>
      <point x="320" y="-9"/>
      <point x="373" y="40"/>
      <point x="420" y="128" type="curve"/>
      <point x="385" y="166" type="line"/>
      <point x="348" y="109"/>
      <point x="323" y="92"/>
      <point x="289" y="92" type="curve" smooth="yes"/>
      <point x="247" y="92"/>
      <point x="232" y="119"/>
      <point x="232" y="175" type="curve" smooth="yes"/>
      <point x="232" y="279"/>
      <point x="270" y="341"/>
      <point x="415" y="430" type="curve" smooth="yes"/>
      <point x="584" y="534"/>
      <point x="595" y="540"/>
      <point x="595" y="588" type="curve" smooth="yes"/>
      <point x="595" y="626"/>
      <point x="578" y="636"/>
      <point x="432" y="661" type="curve" smooth="yes"/>
      <point x="306" y="683"/>
      <point x="280" y="722"/>
      <point x="280" y="776" type="curve"/>
      <point x="178" y="776"/>
      <point x="122" y="731"/>
      <point x="122" y="662" type="curve" smooth="yes"/>
      <point x="122" y="582"/>
      <point x="177" y="571"/>
      <point x="335" y="561" type="curve" smooth="yes"/>
      <point x="432" y="555"/>
      <point x="434" y="554"/>
      <point x="434" y="541" type="curve" smooth="yes"/>
      <point x="434" y="525"/>
      <point x="425" y="520"/>
      <point x="321" y="459" type="curve" smooth="yes"/>
      <point x="90" y="324"/>
      <point x="43" y="271"/>
      <point x="43" y="160" type="curve" smooth="yes"/>
      <point x="43" y="77"/>
      <point x="85" y="-9"/>
    </contour>
    <contour>
      <point x="520" y="553" type="line"/>
      <point x="351" y="459" type="line"/>
      <point x="391" y="80" type="line"/>
      <point x="395" y="80" type="line"/>
      <point x="405" y="0" type="line"/>
      <point x="617" y="0" type="line"/>
      <point x="617" y="62" type="line"/>
      <point x="580" y="62"/>
      <point x="572" y="82"/>
      <point x="566" y="135" type="curve" smooth="yes"/>
    </contour>
  </outline>
</glyph>
<glyph name="uni0572" format="2">
  <advance width="668"/>
  <unicode hex="0572"/>
  <note>
uni0572
</note>
  <outline>
    <contour>
      <point x="400" y="502" type="curve" smooth="yes"/>
      <point x="337" y="502"/>
      <point x="295" y="497"/>
      <point x="254" y="425" type="curve"/>
      <point x="249" y="425" type="line"/>
      <point x="233" y="492" type="line"/>
      <point x="29" y="492" type="line"/>
      <point x="29" y="430" type="line"/>
      <point x="52" y="430"/>
      <point x="67" y="420"/>
      <point x="67" y="389" type="curve" smooth="yes"/>
      <point x="67" y="0" type="line"/>
      <point x="293" y="0" type="line"/>
      <point x="293" y="62" type="line"/>
      <point x="259" y="62"/>
      <point x="253" y="73"/>
      <point x="253" y="104" type="curve" smooth="yes"/>
      <point x="253" y="258" type="line" smooth="yes"/>
      <point x="253" y="338"/>
      <point x="263" y="400"/>
      <point x="315" y="400" type="curve" smooth="yes"/>
      <point x="360" y="400"/>
      <point x="373" y="355"/>
      <point x="373" y="270" type="curve" smooth="yes"/>
      <point x="373" y="-265" type="line"/>
      <point x="559" y="-265" type="line"/>
      <point x="559" y="307" type="line" smooth="yes"/>
      <point x="559" y="445"/>
      <point x="497" y="502"/>
    </contour>
    <contour>
      <point x="408" y="-265" type="line"/>
      <point x="693" y="-265" type="line"/>
      <point x="693" y="-195" type="line"/>
      <point x="408" y="-195" type="line"/>
    </contour>
  </outline>
</glyph>
<glyph name="uni0573" format="2">
  <advance width="619"/>
  <unicode hex="0573"/>
  <note>
uni0573
</note>
  <outline>
    <contour>
      <point x="226" y="-14" type="curve"/>
      <point x="283" y="-14"/>
      <point x="324" y="-4"/>
      <point x="367" y="65" type="curve"/>
      <point x="372" y="65" type="line"/>
      <point x="388" y="0" type="line"/>
      <point x="594" y="0" type="line"/>
      <point x="594" y="62" type="line"/>
      <point x="570" y="62"/>
      <point x="553" y="72"/>
      <point x="553" y="103" type="curve" smooth="yes"/>
      <point x="553" y="198" type="line" smooth="yes"/>
      <point x="553" y="436"/>
      <point x="428" y="487"/>
      <point x="14" y="503" type="curve"/>
      <point x="14" y="427" type="line"/>
      <point x="312" y="413"/>
      <point x="367" y="360"/>
      <point x="367" y="190" type="curve" smooth="yes"/>
      <point x="367" y="157"/>
      <point x="365" y="88"/>
      <point x="311" y="88" type="curve" smooth="yes"/>
      <point x="277" y="88"/>
      <point x="239" y="123"/>
      <point x="244" y="245" type="curve" smooth="yes"/>
      <point x="257" y="583"/>
      <point x="322" y="694"/>
      <point x="409" y="694" type="curve" smooth="yes"/>
      <point x="453" y="694"/>
      <point x="472" y="658"/>
      <point x="472" y="555" type="curve"/>
      <point x="578" y="555"/>
      <point x="629" y="588"/>
      <point x="629" y="654" type="curve" smooth="yes"/>
      <point x="629" y="715"/>
      <point x="554" y="764"/>
      <point x="415" y="764" type="curve" smooth="yes"/>
      <point x="206" y="764"/>
      <point x="55" y="577"/>
      <point x="55" y="189" type="curve" smooth="yes"/>
      <point x="55" y="43"/>
      <point x="133" y="-14"/>
    </contour>
  </outline>
</glyph>
<glyph name="uni0574" format="2">
  <advance width="621"/>
  <unicode hex="0574"/>
  <note>
uni0574
</note>
  <outline>
    <contour>
      <point x="555" y="103" type="curve" smooth="yes"/>
      <point x="555" y="380" type="line" smooth="yes"/>
      <point x="555" y="443"/>
      <point x="531" y="494"/>
      <point x="449" y="563" type="curve" smooth="yes"/>
      <point x="408" y="597"/>
      <point x="390" y="627"/>
      <point x="390" y="652" type="curve" smooth="yes"/>
      <point x="390" y="677"/>
      <point x="404" y="694"/>
      <point x="433" y="694" type="curve" smooth="yes"/>
      <point x="475" y="694"/>
      <point x="496" y="646"/>
      <point x="496" y="556" type="curve"/>
      <point x="579" y="556"/>
      <point x="652" y="595"/>
      <point x="652" y="654" type="curve" smooth="yes"/>
      <point x="652" y="716"/>
      <point x="565" y="764"/>
      <point x="444" y="764" type="curve" smooth="yes"/>
      <point x="314" y="764"/>
      <point x="224" y="713"/>
      <point x="224" y="625" type="curve" smooth="yes"/>
      <point x="224" y="578"/>
      <point x="249" y="545"/>
      <point x="298" y="504" type="curve" smooth="yes"/>
      <point x="345" y="464"/>
      <point x="369" y="425"/>
      <point x="369" y="370" type="curve" smooth="yes"/>
      <point x="369" y="234" type="line" smooth="yes"/>
      <point x="369" y="156"/>
      <point x="365" y="88"/>
      <point x="308" y="88" type="curve" smooth="yes"/>
      <point x="264" y="88"/>
      <point x="249" y="131"/>
      <point x="249" y="214" type="curve" smooth="yes"/>
      <point x="249" y="492" type="line"/>
      <point x="23" y="492" type="line"/>
      <point x="23" y="430" type="line"/>
      <point x="59" y="430"/>
      <point x="63" y="419"/>
      <point x="63" y="385" type="curve" smooth="yes"/>
      <point x="63" y="179" type="line" smooth="yes"/>
      <point x="63" y="43"/>
      <point x="124" y="-14"/>
      <point x="223" y="-14" type="curve" smooth="yes"/>
      <point x="280" y="-14"/>
      <point x="325" y="-4"/>
      <point x="369" y="65" type="curve"/>
      <point x="374" y="65" type="line"/>
      <point x="390" y="0" type="line"/>
      <point x="595" y="0" type="line"/>
      <point x="595" y="62" type="line"/>
      <point x="571" y="62"/>
      <point x="555" y="72"/>
    </contour>
  </outline>
</glyph>
<glyph name="uni0575" format="2">
  <advance width="320"/>
  <unicode hex="0575"/>
  <note>
uni0575
</note>
  <outline>
    <contour>
      <point x="66" y="117" type="line" smooth="yes"/>
      <point x="66" y="8"/>
      <point x="104" y="-29"/>
      <point x="104" y="-103" type="curve" smooth="yes"/>
      <point x="104" y="-155"/>
      <point x="82" y="-195"/>
      <point x="22" y="-195" type="curve" smooth="yes"/>
      <point x="15" y="-195" type="line"/>
      <point x="15" y="-265" type="line"/>
      <point x="36" y="-265" type="line" smooth="yes"/>
      <point x="223" y="-265"/>
      <point x="291" y="-204"/>
      <point x="291" y="-97" type="curve" smooth="yes"/>
      <point x="291" y="-24"/>
      <point x="253" y="11"/>
      <point x="253" y="118" type="curve" smooth="yes"/>
      <point x="253" y="492" type="line"/>
      <point x="14" y="492" type="line"/>
      <point x="14" y="430" type="line"/>
      <point x="26" y="430" type="line" smooth="yes"/>
      <point x="57" y="430"/>
      <point x="66" y="424"/>
      <point x="66" y="381" type="curve" smooth="yes"/>
    </contour>
  </outline>
</glyph>
<glyph name="uni0576" format="2">
  <advance width="616"/>
  <unicode hex="0576"/>
  <note>
uni0576
</note>
  <outline>
    <contour>
      <point x="221" y="-14" type="curve" smooth="yes"/>
      <point x="280" y="-14"/>
      <point x="324" y="2"/>
      <point x="363" y="67" type="curve"/>
      <point x="369" y="67" type="line"/>
      <point x="384" y="0" type="line"/>
      <point x="588" y="0" type="line"/>
      <point x="588" y="62" type="line"/>
      <point x="566" y="62"/>
      <point x="550" y="72"/>
      <point x="550" y="103" type="curve" smooth="yes"/>
      <point x="550" y="492" type="line"/>
      <point x="324" y="492" type="line"/>
      <point x="324" y="430" type="line"/>
      <point x="358" y="430"/>
      <point x="364" y="419"/>
      <point x="364" y="388" type="curve" smooth="yes"/>
      <point x="364" y="234" type="line" smooth="yes"/>
      <point x="364" y="154"/>
      <point x="358" y="88"/>
      <point x="285" y="88" type="curve" smooth="yes"/>
      <point x="244" y="88"/>
      <point x="229" y="129"/>
      <point x="229" y="211" type="curve" smooth="yes"/>
      <point x="229" y="296"/>
      <point x="243" y="412"/>
      <point x="267" y="495" type="curve"/>
      <point x="171" y="514" type="line"/>
      <point x="92" y="395"/>
      <point x="40" y="270"/>
      <point x="40" y="176" type="curve" smooth="yes"/>
      <point x="40" y="41"/>
      <point x="123" y="-14"/>
    </contour>
    <contour>
      <point x="267" y="508" type="line"/>
      <point x="178" y="525"/>
      <point x="164" y="558"/>
      <point x="164" y="589" type="curve" smooth="yes"/>
      <point x="164" y="649"/>
      <point x="180" y="680"/>
      <point x="308" y="680" type="curve"/>
      <point x="306" y="731"/>
      <point x="259" y="762"/>
      <point x="166" y="762" type="curve" smooth="yes"/>
      <point x="56" y="762"/>
      <point x="3" y="688"/>
      <point x="3" y="626" type="curve" smooth="yes"/>
      <point x="3" y="546"/>
      <point x="70" y="484"/>
      <point x="156" y="468" type="curve"/>
      <point x="267" y="495" type="line"/>
    </contour>
  </outline>
</glyph>
<glyph name="uni0577" format="2">
  <advance width="560"/>
  <unicode hex="0577"/>
  <note>
uni0577
</note>
  <outline>
    <contour>
      <point x="265" y="503" type="curve" smooth="yes"/>
      <point x="133" y="503"/>
      <point x="25" y="456"/>
      <point x="25" y="379" type="curve" smooth="yes"/>
      <point x="25" y="313"/>
      <point x="82" y="282"/>
      <point x="185" y="282" type="curve"/>
      <point x="185" y="400"/>
      <point x="216" y="433"/>
      <point x="260" y="433" type="curve" smooth="yes"/>
      <point x="302" y="433"/>
      <point x="328" y="403"/>
      <point x="328" y="312" type="curve" smooth="yes"/>
      <point x="328" y="227"/>
      <point x="292" y="148"/>
      <point x="192" y="49" type="curve" smooth="yes"/>
      <point x="65" y="-77"/>
      <point x="34" y="-138"/>
      <point x="34" y="-197" type="curve" smooth="yes"/>
      <point x="34" y="-241"/>
      <point x="55" y="-265"/>
      <point x="102" y="-265" type="curve" smooth="yes"/>
      <point x="484" y="-265" type="line"/>
      <point x="484" y="-179" type="line"/>
      <point x="292" y="-179" type="line" smooth="yes"/>
      <point x="248" y="-179"/>
      <point x="225" y="-174"/>
      <point x="225" y="-143" type="curve" smooth="yes"/>
      <point x="225" y="-101"/>
      <point x="255" y="-58"/>
      <point x="384" y="71" type="curve" smooth="yes"/>
      <point x="488" y="175"/>
      <point x="517" y="241"/>
      <point x="517" y="315" type="curve" smooth="yes"/>
      <point x="517" y="439"/>
      <point x="414" y="503"/>
    </contour>
  </outline>
</glyph>
<glyph name="uni0578" format="2">
  <advance width="621"/>
  <unicode hex="0578"/>
  <note>
uni0578
</note>
  <anchor x="313" y="492" name="top"/>
  <outline>
    <contour>
      <point x="599" y="62" type="line"/>
      <point x="563" y="62"/>
      <point x="559" y="73"/>
      <point x="559" y="107" type="curve" smooth="yes"/>
      <point x="559" y="307" type="line" smooth="yes"/>
      <point x="559" y="445"/>
      <point x="497" y="502"/>
      <point x="400" y="502" type="curve" smooth="yes"/>
      <point x="337" y="502"/>
      <point x="295" y="487"/>
      <point x="254" y="425" type="curve"/>
      <point x="249" y="425" type="line"/>
      <point x="233" y="492" type="line"/>
      <point x="29" y="492" type="line"/>
      <point x="29" y="430" type="line"/>
      <point x="52" y="430"/>
      <point x="67" y="420"/>
      <point x="67" y="389" type="curve" smooth="yes"/>
      <point x="67" y="0" type="line"/>
      <point x="293" y="0" type="line"/>
      <point x="293" y="62" type="line"/>
      <point x="259" y="62"/>
      <point x="253" y="73"/>
      <point x="253" y="104" type="curve" smooth="yes"/>
      <point x="253" y="258" type="line" smooth="yes"/>
      <point x="253" y="338"/>
      <point x="263" y="400"/>
      <point x="315" y="400" type="curve" smooth="yes"/>
      <point x="360" y="400"/>
      <point x="373" y="355"/>
      <point x="373" y="270" type="curve" smooth="yes"/>
      <point x="373" y="0" type="line"/>
      <point x="599" y="0" type="line"/>
    </contour>
  </outline>
</glyph>
<glyph name="uni0579" format="2">
  <advance width="409"/>
  <unicode hex="0579"/>
  <note>
uni0579
</note>
  <outline>
    <contour>
      <point x="377" y="257" type="line"/>
      <point x="205" y="303" type="line"/>
      <point x="71" y="63" type="line" smooth="yes"/>
      <point x="-20" y="-100"/>
      <point x="-40" y="-145"/>
      <point x="-40" y="-197" type="curve" smooth="yes"/>
      <point x="-40" y="-241"/>
      <point x="-18" y="-265"/>
      <point x="28" y="-265" type="curve" smooth="yes"/>
      <point x="378" y="-265" type="line"/>
      <point x="378" y="-189" type="line"/>
      <point x="229" y="-189" type="line" smooth="yes"/>
      <point x="178" y="-189"/>
      <point x="162" y="-181"/>
      <point x="162" y="-157" type="curve" smooth="yes"/>
      <point x="162" y="-134"/>
      <point x="166" y="-122"/>
      <point x="202" y="-58" type="curve" smooth="yes"/>
    </contour>
    <contour>
      <point x="202" y="492" type="curve"/>
      <point x="94" y="492" type="line"/>
      <point x="66" y="466"/>
      <point x="53" y="426"/>
      <point x="53" y="391" type="curve" smooth="yes"/>
      <point x="53" y="343"/>
      <point x="73" y="306"/>
      <point x="115" y="264" type="curve" smooth="yes"/>
      <point x="201" y="180" type="line"/>
      <point x="377" y="257" type="line"/>
      <point x="239" y="384" type="line" smooth="yes"/>
      <point x="197" y="423"/>
      <point x="194" y="436"/>
      <point x="194" y="458" type="curve" smooth="yes"/>
      <point x="194" y="470"/>
      <point x="198" y="484"/>
    </contour>
  </outline>
</glyph>
<glyph name="uni057A" format="2">
  <advance width="934"/>
  <unicode hex="057A"/>
  <note>
uni057A
</note>
  <outline>
    <contour>
      <point x="642" y="492" type="line"/>
      <point x="642" y="430" type="line"/>
      <point x="678" y="430"/>
      <point x="681" y="416"/>
      <point x="681" y="387" type="curve" smooth="yes"/>
      <point x="681" y="234" type="line" smooth="yes"/>
      <point x="681" y="156"/>
      <point x="668" y="87"/>
      <point x="614" y="87" type="curve" smooth="yes"/>
      <point x="573" y="87"/>
      <point x="558" y="134"/>
      <point x="558" y="217" type="curve" smooth="yes"/>
      <point x="558" y="492" type="line"/>
      <point x="332" y="492" type="line"/>
      <point x="332" y="430" type="line"/>
      <point x="367" y="430"/>
      <point x="372" y="419"/>
      <point x="372" y="387" type="curve" smooth="yes"/>
      <point x="372" y="223" type="line" smooth="yes"/>
      <point x="372" y="150"/>
      <point x="351" y="87"/>
      <point x="304" y="87" type="curve" smooth="yes"/>
      <point x="254" y="87"/>
      <point x="249" y="134"/>
      <point x="249" y="217" type="curve" smooth="yes"/>
      <point x="249" y="492" type="line"/>
      <point x="23" y="492" type="line"/>
      <point x="23" y="430" type="line"/>
      <point x="57" y="430"/>
      <point x="62" y="425"/>
      <point x="62" y="395" type="curve" smooth="yes"/>
      <point x="62" y="181" type="line" smooth="yes"/>
      <point x="62" y="41"/>
      <point x="115" y="-15"/>
      <point x="216" y="-15" type="curve" smooth="yes"/>
      <point x="272" y="-15"/>
      <point x="331" y="-6"/>
      <point x="376" y="64" type="curve"/>
      <point x="387" y="64" type="line"/>
      <point x="414" y="4"/>
      <point x="472" y="-15"/>
      <point x="539" y="-15" type="curve" smooth="yes"/>
      <point x="603" y="-15"/>
      <point x="637" y="-2"/>
      <point x="681" y="65" type="curve"/>
      <point x="686" y="65" type="line"/>
      <point x="684" y="42"/>
      <point x="681" y="19"/>
      <point x="681" y="-4" type="curve" smooth="yes"/>
      <point x="681" y="-265" type="line"/>
      <point x="907" y="-265" type="line"/>
      <point x="907" y="-207" type="line"/>
      <point x="873" y="-207"/>
      <point x="868" y="-197"/>
      <point x="868" y="-174" type="curve" smooth="yes"/>
      <point x="868" y="492" type="line"/>
    </contour>
  </outline>
</glyph>
<glyph name="uni057B" format="2">
  <advance width="607"/>
  <unicode hex="057B"/>
  <note>
uni057B
</note>
  <outline>
    <contour>
      <point x="169" y="-265" type="curve" smooth="yes"/>
      <point x="529" y="-265" type="line"/>
      <point x="529" y="-171" type="line"/>
      <point x="358" y="-171" type="line" smooth="yes"/>
      <point x="314" y="-171"/>
      <point x="300" y="-163"/>
      <point x="300" y="-125" type="curve" smooth="yes"/>
      <point x="300" y="-78"/>
      <point x="325" y="-51"/>
      <point x="439" y="71" type="curve" smooth="yes"/>
      <point x="536" y="175"/>
      <point x="564" y="242"/>
      <point x="564" y="315" type="curve" smooth="yes"/>
      <point x="564" y="441"/>
      <point x="455" y="503"/>
      <point x="303" y="503" type="curve" smooth="yes"/>
      <point x="146" y="503"/>
      <point x="38" y="445"/>
      <point x="38" y="312" type="curve" smooth="yes"/>
      <point x="38" y="255"/>
      <point x="73" y="205"/>
      <point x="134" y="149" type="curve" smooth="yes"/>
      <point x="199" y="89"/>
      <point x="207" y="70"/>
      <point x="207" y="32" type="curve" smooth="yes"/>
      <point x="207" y="-2"/>
      <point x="193" y="-21"/>
      <point x="143" y="-81" type="curve"/>
      <point x="235" y="-81" type="line"/>
      <point x="289" y="-17"/>
      <point x="316" y="31"/>
      <point x="316" y="83" type="curve" smooth="yes"/>
      <point x="316" y="121"/>
      <point x="304" y="161"/>
      <point x="274" y="209" type="curve" smooth="yes"/>
      <point x="239" y="265"/>
      <point x="227" y="306"/>
      <point x="227" y="330" type="curve" smooth="yes"/>
      <point x="227" y="408"/>
      <point x="255" y="428"/>
      <point x="303" y="428" type="curve" smooth="yes"/>
      <point x="351" y="428"/>
      <point x="376" y="402"/>
      <point x="376" y="320" type="curve" smooth="yes"/>
      <point x="376" y="190"/>
      <point x="345" y="130"/>
      <point x="264" y="49" type="curve" smooth="yes"/>
      <point x="125" y="-91"/>
      <point x="98" y="-128"/>
      <point x="98" y="-195" type="curve" smooth="yes"/>
      <point x="98" y="-241"/>
      <point x="123" y="-265"/>
    </contour>
  </outline>
</glyph>
<glyph name="uni057C" format="2">
  <advance width="672"/>
  <unicode hex="057C"/>
  <note>
uni057C
</note>
  <outline>
    <contour>
      <point x="428" y="0" type="line"/>
      <point x="672" y="0" type="line"/>
      <point x="672" y="70" type="line"/>
      <point x="428" y="70" type="line"/>
    </contour>
    <contour>
      <point x="415" y="502" type="curve" smooth="yes"/>
      <point x="339" y="502"/>
      <point x="291" y="478"/>
      <point x="254" y="425" type="curve"/>
      <point x="249" y="425" type="line"/>
      <point x="233" y="492" type="line"/>
      <point x="29" y="492" type="line"/>
      <point x="29" y="430" type="line"/>
      <point x="52" y="430"/>
      <point x="67" y="420"/>
      <point x="67" y="389" type="curve" smooth="yes"/>
      <point x="67" y="0" type="line"/>
      <point x="253" y="0" type="line"/>
      <point x="253" y="258" type="line" smooth="yes"/>
      <point x="253" y="369"/>
      <point x="276" y="400"/>
      <point x="326" y="400" type="curve" smooth="yes"/>
      <point x="376" y="400"/>
      <point x="399" y="372"/>
      <point x="399" y="291" type="curve" smooth="yes"/>
      <point x="399" y="227"/>
      <point x="386" y="123"/>
      <point x="353" y="0" type="curve"/>
      <point x="446" y="0" type="line"/>
      <point x="539" y="127"/>
      <point x="588" y="227"/>
      <point x="588" y="331" type="curve" smooth="yes"/>
      <point x="588" y="446"/>
      <point x="517" y="502"/>
    </contour>
  </outline>
</glyph>
<glyph name="uni057D" format="2">
  <advance width="621"/>
  <unicode hex="057D"/>
  <note>
uni057D
</note>
  <outline>
    <contour>
      <point x="222" y="-14" type="curve" smooth="yes"/>
      <point x="279" y="-14"/>
      <point x="324" y="6"/>
      <point x="368" y="65" type="curve"/>
      <point x="373" y="65" type="line"/>
      <point x="389" y="0" type="line"/>
      <point x="594" y="0" type="line"/>
      <point x="594" y="62" type="line"/>
      <point x="570" y="62"/>
      <point x="554" y="72"/>
      <point x="554" y="103" type="curve" smooth="yes"/>
      <point x="554" y="492" type="line"/>
      <point x="328" y="492" type="line"/>
      <point x="328" y="430" type="line"/>
      <point x="362" y="430"/>
      <point x="368" y="419"/>
      <point x="368" y="388" type="curve" smooth="yes"/>
      <point x="368" y="234" type="line" smooth="yes"/>
      <point x="368" y="156"/>
      <point x="364" y="88"/>
      <point x="307" y="88" type="curve" smooth="yes"/>
      <point x="263" y="88"/>
      <point x="248" y="131"/>
      <point x="248" y="214" type="curve" smooth="yes"/>
      <point x="248" y="492" type="line"/>
      <point x="22" y="492" type="line"/>
      <point x="22" y="430" type="line"/>
      <point x="58" y="430"/>
      <point x="62" y="419"/>
      <point x="62" y="385" type="curve" smooth="yes"/>
      <point x="62" y="179" type="line" smooth="yes"/>
      <point x="62" y="43"/>
      <point x="123" y="-14"/>
    </contour>
  </outline>
</glyph>
<glyph name="uni057E" format="2">
  <advance width="663"/>
  <unicode hex="057E"/>
  <note>
uni057E
</note>
  <outline>
    <contour>
      <point x="222" y="-14" type="curve" smooth="yes"/>
      <point x="279" y="-14"/>
      <point x="324" y="-4"/>
      <point x="367" y="65" type="curve"/>
      <point x="373" y="65" type="line"/>
      <point x="372" y="41"/>
      <point x="368" y="19"/>
      <point x="368" y="-5" type="curve" smooth="yes"/>
      <point x="368" y="-265" type="line"/>
      <point x="554" y="-265" type="line"/>
      <point x="554" y="760" type="line"/>
      <point x="328" y="760" type="line"/>
      <point x="328" y="698" type="line"/>
      <point x="362" y="698"/>
      <point x="368" y="687"/>
      <point x="368" y="656" type="curve" smooth="yes"/>
      <point x="368" y="234" type="line" smooth="yes"/>
      <point x="368" y="156"/>
      <point x="364" y="88"/>
      <point x="307" y="88" type="curve" smooth="yes"/>
      <point x="263" y="88"/>
      <point x="248" y="131"/>
      <point x="248" y="214" type="curve" smooth="yes"/>
      <point x="248" y="492" type="line"/>
      <point x="22" y="492" type="line"/>
      <point x="22" y="430" type="line"/>
      <point x="58" y="430"/>
      <point x="62" y="419"/>
      <point x="62" y="385" type="curve" smooth="yes"/>
      <point x="62" y="179" type="line" smooth="yes"/>
      <point x="62" y="43"/>
      <point x="123" y="-14"/>
    </contour>
    <contour>
      <point x="532" y="-265" type="line"/>
      <point x="688" y="-265" type="line"/>
      <point x="688" y="-195" type="line"/>
      <point x="532" y="-195" type="line"/>
    </contour>
  </outline>
</glyph>
<glyph name="uni057F" format="2">
  <advance width="922"/>
  <unicode hex="057F"/>
  <note>
uni057F
</note>
  <outline>
    <contour>
      <point x="860" y="107" type="curve" smooth="yes"/>
      <point x="860" y="307" type="line" smooth="yes"/>
      <point x="860" y="445"/>
      <point x="798" y="502"/>
      <point x="700" y="502" type="curve" smooth="yes"/>
      <point x="638" y="502"/>
      <point x="596" y="487"/>
      <point x="555" y="425" type="curve"/>
      <point x="549" y="425" type="line"/>
      <point x="535" y="492" type="line"/>
      <point x="328" y="492" type="line"/>
      <point x="328" y="430" type="line"/>
      <point x="362" y="430"/>
      <point x="368" y="419"/>
      <point x="368" y="388" type="curve" smooth="yes"/>
      <point x="368" y="234" type="line" smooth="yes"/>
      <point x="368" y="156"/>
      <point x="364" y="88"/>
      <point x="307" y="88" type="curve" smooth="yes"/>
      <point x="263" y="88"/>
      <point x="248" y="131"/>
      <point x="248" y="214" type="curve" smooth="yes"/>
      <point x="248" y="492" type="line"/>
      <point x="22" y="492" type="line"/>
      <point x="22" y="430" type="line"/>
      <point x="58" y="430"/>
      <point x="62" y="419"/>
      <point x="62" y="385" type="curve" smooth="yes"/>
      <point x="62" y="179" type="line" smooth="yes"/>
      <point x="62" y="43"/>
      <point x="123" y="-14"/>
      <point x="222" y="-14" type="curve" smooth="yes"/>
      <point x="279" y="-14"/>
      <point x="324" y="-4"/>
      <point x="368" y="65" type="curve"/>
      <point x="373" y="65" type="line"/>
      <point x="389" y="0" type="line"/>
      <point x="594" y="0" type="line"/>
      <point x="594" y="62" type="line"/>
      <point x="570" y="62"/>
      <point x="554" y="72"/>
      <point x="554" y="103" type="curve" smooth="yes"/>
      <point x="554" y="258" type="line" smooth="yes"/>
      <point x="554" y="338"/>
      <point x="564" y="400"/>
      <point x="616" y="400" type="curve" smooth="yes"/>
      <point x="660" y="400"/>
      <point x="674" y="355"/>
      <point x="674" y="270" type="curve" smooth="yes"/>
      <point x="674" y="0" type="line"/>
      <point x="900" y="0" type="line"/>
      <point x="900" y="62" type="line"/>
      <point x="864" y="62"/>
      <point x="860" y="73"/>
    </contour>
  </outline>
</glyph>
<glyph name="uni0580" format="2">
  <advance width="620"/>
  <unicode hex="0580"/>
  <note>
uni0580
</note>
  <outline>
    <contour>
      <point x="601" y="62" type="line"/>
      <point x="565" y="62"/>
      <point x="561" y="73"/>
      <point x="561" y="107" type="curve" smooth="yes"/>
      <point x="561" y="307" type="line" smooth="yes"/>
      <point x="561" y="445"/>
      <point x="499" y="502"/>
      <point x="402" y="502" type="curve" smooth="yes"/>
      <point x="339" y="502"/>
      <point x="297" y="490"/>
      <point x="256" y="425" type="curve"/>
      <point x="251" y="425" type="line"/>
      <point x="235" y="492" type="line"/>
      <point x="31" y="492" type="line"/>
      <point x="31" y="430" type="line"/>
      <point x="54" y="430"/>
      <point x="69" y="420"/>
      <point x="69" y="389" type="curve" smooth="yes"/>
      <point x="69" y="-265" type="line"/>
      <point x="295" y="-265" type="line"/>
      <point x="295" y="-203" type="line"/>
      <point x="261" y="-203"/>
      <point x="255" y="-192"/>
      <point x="255" y="-161" type="curve" smooth="yes"/>
      <point x="255" y="258" type="line" smooth="yes"/>
      <point x="255" y="338"/>
      <point x="265" y="400"/>
      <point x="317" y="400" type="curve" smooth="yes"/>
      <point x="362" y="400"/>
      <point x="375" y="355"/>
      <point x="375" y="270" type="curve" smooth="yes"/>
      <point x="375" y="0" type="line"/>
      <point x="601" y="0" type="line"/>
    </contour>
  </outline>
</glyph>
<glyph name="uni0581" format="2">
  <advance width="634"/>
  <unicode hex="0581"/>
  <note>
uni0581
</note>
  <outline>
    <contour>
      <point x="272" y="-271" type="curve" smooth="yes"/>
      <point x="423" y="-271"/>
      <point x="554" y="-189"/>
      <point x="554" y="-19" type="curve" smooth="yes"/>
      <point x="554" y="492" type="line"/>
      <point x="410" y="492" type="line"/>
      <point x="386" y="429" type="line"/>
      <point x="377" y="429" type="line"/>
      <point x="345" y="483"/>
      <point x="302" y="502"/>
      <point x="246" y="502" type="curve" smooth="yes"/>
      <point x="114" y="502"/>
      <point x="42" y="409"/>
      <point x="42" y="249" type="curve" smooth="yes"/>
      <point x="42" y="85"/>
      <point x="115" y="-9"/>
      <point x="246" y="-9" type="curve" smooth="yes"/>
      <point x="294" y="-9"/>
      <point x="330" y="11"/>
      <point x="366" y="64" type="curve"/>
      <point x="377" y="64" type="line"/>
      <point x="369" y="-1"/>
      <point x="368" y="-27"/>
      <point x="368" y="-53" type="curve" smooth="yes"/>
      <point x="368" y="-60" type="line" smooth="yes"/>
      <point x="368" y="-150"/>
      <point x="336" y="-201"/>
      <point x="277" y="-201" type="curve" smooth="yes"/>
      <point x="217" y="-201"/>
      <point x="181" y="-146"/>
      <point x="181" y="-69" type="curve"/>
      <point x="113" y="-69"/>
      <point x="71" y="-101"/>
      <point x="71" y="-159" type="curve" smooth="yes"/>
      <point x="71" y="-237"/>
      <point x="141" y="-271"/>
    </contour>
    <contour>
      <point x="298" y="78" type="curve" smooth="yes"/>
      <point x="237" y="78"/>
      <point x="231" y="172"/>
      <point x="231" y="248" type="curve" smooth="yes"/>
      <point x="231" y="325"/>
      <point x="235" y="414"/>
      <point x="295" y="414" type="curve" smooth="yes"/>
      <point x="348" y="414"/>
      <point x="377" y="374"/>
      <point x="377" y="246" type="curve" smooth="yes"/>
      <point x="377" y="138"/>
      <point x="356" y="78"/>
    </contour>
  </outline>
</glyph>
<glyph name="uni0582" format="2">
  <advance width="444"/>
  <unicode hex="0582"/>
  <note>
uni0582
</note>
  <outline>
    <contour>
      <point x="433" y="106" type="line"/>
      <point x="372" y="106" type="line"/>
      <point x="372" y="74"/>
      <point x="362" y="70"/>
      <point x="322" y="70" type="curve" smooth="yes"/>
      <point x="253" y="70" type="line"/>
      <point x="253" y="492" type="line"/>
      <point x="14" y="492" type="line"/>
      <point x="14" y="430" type="line"/>
      <point x="26" y="430" type="line" smooth="yes"/>
      <point x="57" y="430"/>
      <point x="66" y="424"/>
      <point x="66" y="381" type="curve" smooth="yes"/>
      <point x="66" y="0" type="line"/>
      <point x="433" y="0" type="line"/>
    </contour>
  </outline>
</glyph>
<glyph name="uni0583" format="2">
  <advance width="922"/>
  <unicode hex="0583"/>
  <note>
uni0583
</note>
  <outline>
    <contour>
      <point x="860" y="107" type="curve" smooth="yes"/>
      <point x="860" y="307" type="line" smooth="yes"/>
      <point x="860" y="445"/>
      <point x="798" y="502"/>
      <point x="700" y="502" type="curve" smooth="yes"/>
      <point x="638" y="502"/>
      <point x="596" y="487"/>
      <point x="555" y="425" type="curve"/>
      <point x="550" y="425" type="line"/>
      <point x="551" y="450"/>
      <point x="554" y="474"/>
      <point x="554" y="500" type="curve" smooth="yes"/>
      <point x="554" y="760" type="line"/>
      <point x="328" y="760" type="line"/>
      <point x="328" y="698" type="line"/>
      <point x="362" y="698"/>
      <point x="368" y="687"/>
      <point x="368" y="656" type="curve" smooth="yes"/>
      <point x="368" y="234" type="line" smooth="yes"/>
      <point x="368" y="156"/>
      <point x="364" y="88"/>
      <point x="307" y="88" type="curve" smooth="yes"/>
      <point x="263" y="88"/>
      <point x="248" y="131"/>
      <point x="248" y="214" type="curve" smooth="yes"/>
      <point x="248" y="492" type="line"/>
      <point x="22" y="492" type="line"/>
      <point x="22" y="430" type="line"/>
      <point x="58" y="430"/>
      <point x="62" y="419"/>
      <point x="62" y="385" type="curve" smooth="yes"/>
      <point x="62" y="179" type="line" smooth="yes"/>
      <point x="62" y="43"/>
      <point x="123" y="-14"/>
      <point x="222" y="-14" type="curve" smooth="yes"/>
      <point x="279" y="-14"/>
      <point x="324" y="-4"/>
      <point x="367" y="65" type="curve"/>
      <point x="375" y="65" type="line"/>
      <point x="372" y="41"/>
      <point x="368" y="19"/>
      <point x="368" y="-6" type="curve" smooth="yes"/>
      <point x="368" y="-265" type="line"/>
      <point x="594" y="-265" type="line"/>
      <point x="594" y="-203" type="line"/>
      <point x="570" y="-203"/>
      <point x="554" y="-193"/>
      <point x="554" y="-162" type="curve" smooth="yes"/>
      <point x="554" y="258" type="line" smooth="yes"/>
      <point x="554" y="338"/>
      <point x="564" y="400"/>
      <point x="616" y="400" type="curve" smooth="yes"/>
      <point x="660" y="400"/>
      <point x="674" y="355"/>
      <point x="674" y="270" type="curve" smooth="yes"/>
      <point x="674" y="0" type="line"/>
      <point x="900" y="0" type="line"/>
      <point x="900" y="62" type="line"/>
      <point x="864" y="62"/>
      <point x="860" y="73"/>
    </contour>
  </outline>
</glyph>
<glyph name="uni0584" format="2">
  <advance width="668"/>
  <unicode hex="0584"/>
  <note>
uni0584
</note>
  <outline>
    <contour>
      <point x="424" y="502" type="curve" smooth="yes"/>
      <point x="347" y="502"/>
      <point x="299" y="467"/>
      <point x="271" y="420" type="curve"/>
      <point x="267" y="420" type="line"/>
      <point x="244" y="492" type="line"/>
      <point x="57" y="492" type="line"/>
      <point x="57" y="430" type="line"/>
      <point x="89" y="430"/>
      <point x="95" y="420"/>
      <point x="95" y="381" type="curve" smooth="yes"/>
      <point x="95" y="-265" type="line"/>
      <point x="320" y="-265" type="line"/>
      <point x="320" y="-203" type="line"/>
      <point x="296" y="-203"/>
      <point x="282" y="-194"/>
      <point x="282" y="-162" type="curve" smooth="yes"/>
      <point x="282" y="-59" type="line" smooth="yes"/>
      <point x="282" y="-43"/>
      <point x="282" y="22"/>
      <point x="272" y="59" type="curve"/>
      <point x="280" y="59" type="line"/>
      <point x="308" y="15"/>
      <point x="353" y="-13"/>
      <point x="426" y="-13" type="curve" smooth="yes"/>
      <point x="556" y="-13"/>
      <point x="626" y="75"/>
      <point x="626" y="241" type="curve" smooth="yes"/>
      <point x="626" y="415"/>
      <point x="555" y="502"/>
    </contour>
    <contour>
      <point x="367" y="75" type="curve" smooth="yes"/>
      <point x="287" y="75"/>
      <point x="282" y="138"/>
      <point x="282" y="244" type="curve" smooth="yes"/>
      <point x="282" y="356"/>
      <point x="296" y="413"/>
      <point x="371" y="413" type="curve" smooth="yes"/>
      <point x="420" y="413"/>
      <point x="438" y="352"/>
      <point x="438" y="243" type="curve" smooth="yes"/>
      <point x="438" y="132"/>
      <point x="419" y="75"/>
    </contour>
    <contour>
      <point x="38" y="-139" type="line"/>
      <point x="588" y="-139" type="line"/>
      <point x="588" y="-69" type="line"/>
      <point x="38" y="-69" type="line"/>
    </contour>
  </outline>
</glyph>
<glyph name="uni0585" format="2">
  <advance width="625"/>
  <unicode hex="0585"/>
  <note>
uni0585
</note>
  <anchor x="312" y="492" name="top"/>
  <outline>
    <contour>
      <point x="310" y="-10" type="curve" smooth="yes"/>
      <point x="489" y="-10"/>
      <point x="583" y="74"/>
      <point x="583" y="246" type="curve" smooth="yes"/>
      <point x="583" y="418"/>
      <point x="478" y="502"/>
      <point x="313" y="502" type="curve" smooth="yes"/>
      <point x="135" y="502"/>
      <point x="42" y="419"/>
      <point x="42" y="246" type="curve" smooth="yes"/>
      <point x="42" y="74"/>
      <point x="144" y="-10"/>
    </contour>
    <contour>
      <point x="313" y="64" type="curve" smooth="yes"/>
      <point x="253" y="64"/>
      <point x="232" y="125"/>
      <point x="232" y="246" type="curve" smooth="yes"/>
      <point x="232" y="365"/>
      <point x="252" y="428"/>
      <point x="311" y="428" type="curve" smooth="yes"/>
      <point x="372" y="428"/>
      <point x="393" y="366"/>
      <point x="393" y="246" type="curve" smooth="yes"/>
      <point x="393" y="123"/>
      <point x="371" y="64"/>
    </contour>
  </outline>
</glyph>
<glyph name="uni0586" format="2">
  <advance width="756"/>
  <unicode hex="0586"/>
  <note>
uni0586
</note>
  <outline>
    <contour>
      <point x="349" y="-10" type="curve" smooth="yes"/>
      <point x="589" y="-10"/>
      <point x="714" y="78"/>
      <point x="714" y="194" type="curve" smooth="yes"/>
      <point x="714" y="318"/>
      <point x="662" y="353"/>
      <point x="385" y="432" type="curve" smooth="yes"/>
      <point x="224" y="478"/>
      <point x="212" y="506"/>
      <point x="212" y="594" type="curve" smooth="yes"/>
      <point x="212" y="666"/>
      <point x="238" y="695"/>
      <point x="280" y="695" type="curve"/>
      <point x="280" y="765" type="line"/>
      <point x="131" y="765"/>
      <point x="32" y="688"/>
      <point x="32" y="594" type="curve" smooth="yes"/>
      <point x="32" y="453"/>
      <point x="112" y="394"/>
      <point x="357" y="341" type="curve"/>
      <point x="489" y="304"/>
      <point x="525" y="280"/>
      <point x="525" y="194" type="curve" smooth="yes"/>
      <point x="525" y="109"/>
      <point x="469" y="60"/>
      <point x="355" y="60" type="curve" smooth="yes"/>
      <point x="228" y="60"/>
      <point x="143" y="104"/>
      <point x="143" y="236" type="curve"/>
      <point x="75" y="236"/>
      <point x="26" y="202"/>
      <point x="26" y="142" type="curve" smooth="yes"/>
      <point x="26" y="46"/>
      <point x="143" y="-10"/>
    </contour>
    <contour>
      <point x="280" y="-265" type="line"/>
      <point x="503" y="-265" type="line"/>
      <point x="503" y="-203" type="line"/>
      <point x="462" y="-203"/>
      <point x="455" y="-193"/>
      <point x="455" y="-144" type="curve" smooth="yes"/>
      <point x="455" y="765" type="line"/>
      <point x="280" y="765" type="line"/>
    </contour>
  </outline>
</glyph>
<glyph name="uni0587" format="2">
  <advance width="698"/>
  <unicode hex="0587"/>
  <note>
uni0587
</note>
  <outline>
    <contour>
      <point x="222" y="-14" type="curve" smooth="yes"/>
      <point x="279" y="-14"/>
      <point x="324" y="-4"/>
      <point x="368" y="65" type="curve"/>
      <point x="373" y="65" type="line"/>
      <point x="389" y="0" type="line"/>
      <point x="554" y="0" type="line"/>
      <point x="554" y="492" type="line"/>
      <point x="328" y="492" type="line"/>
      <point x="328" y="430" type="line"/>
      <point x="362" y="430"/>
      <point x="368" y="419"/>
      <point x="368" y="388" type="curve" smooth="yes"/>
      <point x="368" y="234" type="line" smooth="yes"/>
      <point x="368" y="156"/>
      <point x="364" y="88"/>
      <point x="307" y="88" type="curve" smooth="yes"/>
      <point x="263" y="88"/>
      <point x="248" y="131"/>
      <point x="248" y="214" type="curve" smooth="yes"/>
      <point x="248" y="760" type="line"/>
      <point x="22" y="760" type="line"/>
      <point x="22" y="698" type="line"/>
      <point x="58" y="698"/>
      <point x="62" y="687"/>
      <point x="62" y="653" type="curve" smooth="yes"/>
      <point x="62" y="179" type="line" smooth="yes"/>
      <point x="62" y="43"/>
      <point x="123" y="-14"/>
    </contour>
    <contour>
      <point x="546" y="0" type="line"/>
      <point x="711" y="0" type="line"/>
      <point x="711" y="70" type="line"/>
      <point x="546" y="70" type="line"/>
    </contour>
  </outline>
</glyph>
<glyph name="uni0588" format="2">
  <advance width="380"/>
  <unicode hex="0588"/>
  <note>
uni0575
</note>
  <outline>
    <contour>
      <point x="96" y="117" type="line"/>
      <point x="96" y="8"/>
      <point x="134" y="-29"/>
      <point x="134" y="-103" type="curve" smooth="yes"/>
      <point x="134" y="-155"/>
      <point x="112" y="-195"/>
      <point x="52" y="-195" type="curve" smooth="yes"/>
      <point x="45" y="-195" type="line"/>
      <point x="45" y="-265" type="line"/>
      <point x="66" y="-265" type="line" smooth="yes"/>
      <point x="253" y="-265"/>
      <point x="321" y="-204"/>
      <point x="321" y="-97" type="curve" smooth="yes"/>
      <point x="321" y="-24"/>
      <point x="283" y="11"/>
      <point x="283" y="118" type="curve" smooth="yes"/>
      <point x="283" y="492" type="line"/>
      <point x="44" y="492" type="line"/>
      <point x="44" y="430" type="line"/>
      <point x="56" y="430" type="line" smooth="yes"/>
      <point x="87" y="430"/>
      <point x="96" y="424"/>
      <point x="96" y="381" type="curve" smooth="yes"/>
    </contour>
    <contour>
      <point x="6" y="147" type="line"/>
      <point x="6" y="77" type="line"/>
      <point x="373" y="77" type="line"/>
      <point x="373" y="147" type="line"/>
    </contour>
  </outline>
</glyph>
<glyph name="uni0589" format="2">
  <advance width="328"/>
  <unicode hex="0589"/>
  <note>
uni0589
</note>
  <outline>
    <contour>
      <point x="164" y="324" type="curve" smooth="yes"/>
      <point x="215" y="324"/>
      <point x="260" y="347"/>
      <point x="260" y="415" type="curve" smooth="yes"/>
      <point x="260" y="485"/>
      <point x="215" y="507"/>
      <point x="164" y="507" type="curve" smooth="yes"/>
      <point x="109" y="507"/>
      <point x="67" y="485"/>
      <point x="67" y="415" type="curve" smooth="yes"/>
      <point x="67" y="347"/>
      <point x="109" y="324"/>
    </contour>
    <contour>
      <point x="164" y="-9" type="curve" smooth="yes"/>
      <point x="215" y="-9"/>
      <point x="260" y="14"/>
      <point x="260" y="82" type="curve" smooth="yes"/>
      <point x="260" y="152"/>
      <point x="215" y="174"/>
      <point x="164" y="174" type="curve" smooth="yes"/>
      <point x="109" y="174"/>
      <point x="67" y="152"/>
      <point x="67" y="82" type="curve" smooth="yes"/>
      <point x="67" y="14"/>
      <point x="109" y="-9"/>
    </contour>
  </outline>
</glyph>
<glyph name="uni058A" format="2">
  <advance width="479"/>
  <unicode hex="058A"/>
  <note>
uni058A
</note>
  <outline>
    <contour>
      <point x="187" y="169" type="curve" smooth="yes"/>
      <point x="275" y="169"/>
      <point x="355" y="192"/>
      <point x="432" y="225" type="curve"/>
      <point x="411" y="301" type="line"/>
      <point x="351" y="290"/>
      <point x="295" y="284"/>
      <point x="248" y="284" type="curve" smooth="yes"/>
      <point x="210" y="284"/>
      <point x="195" y="305"/>
      <point x="195" y="354" type="curve"/>
      <point x="51" y="354" type="line"/>
      <point x="51" y="226"/>
      <point x="81" y="169"/>
    </contour>
  </outline>
</glyph>
<glyph name="uni058D" format="2">
  <advance width="818"/>
  <unicode hex="058D"/>
  <outline>
    <contour>
      <point x="409" y="-10" type="curve" smooth="yes"/>
      <point x="461" y="-10"/>
      <point x="509" y="8"/>
      <point x="547" y="40" type="curve"/>
      <point x="654" y="51"/>
      <point x="729" y="128"/>
      <point x="733" y="227" type="curve"/>
      <point x="766" y="265"/>
      <point x="784" y="310"/>
      <point x="784" y="357" type="curve" smooth="yes"/>
      <point x="784" y="407"/>
      <point x="764" y="453"/>
      <point x="732" y="488" type="curve"/>
      <point x="728" y="588"/>
      <point x="650" y="664"/>
      <point x="547" y="673" type="curve"/>
      <point x="510" y="706"/>
      <point x="460" y="724"/>
      <point x="409" y="724" type="curve" smooth="yes"/>
      <point x="358" y="724"/>
      <point x="309" y="706"/>
      <point x="273" y="674" type="curve"/>
      <point x="165" y="663"/>
      <point x="89" y="587"/>
      <point x="84" y="487" type="curve"/>
      <point x="51" y="448"/>
      <point x="34" y="403"/>
      <point x="34" y="357" type="curve" smooth="yes"/>
      <point x="34" y="307"/>
      <point x="54" y="261"/>
      <point x="86" y="226" type="curve"/>
      <point x="90" y="128"/>
      <point x="165" y="50"/>
      <point x="270" y="41" type="curve"/>
      <point x="308" y="8"/>
      <point x="359" y="-10"/>
    </contour>
    <contour>
      <point x="600" y="112" type="curve"/>
      <point x="609" y="136"/>
      <point x="615" y="161"/>
      <point x="615" y="187" type="curve" smooth="yes"/>
      <point x="615" y="271"/>
      <point x="559" y="342"/>
      <point x="483" y="372" type="curve"/>
      <point x="498" y="377"/>
      <point x="513" y="380"/>
      <point x="528" y="380" type="curve" smooth="yes"/>
      <point x="601" y="380"/>
      <point x="665" y="315"/>
      <point x="665" y="235" type="curve" smooth="yes"/>
      <point x="665" y="182"/>
      <point x="635" y="134"/>
    </contour>
    <contour>
      <point x="409" y="43" type="curve" smooth="yes"/>
      <point x="392" y="43"/>
      <point x="378" y="45"/>
      <point x="362" y="52" type="curve"/>
      <point x="445" y="81"/>
      <point x="493" y="156"/>
      <point x="493" y="236" type="curve" smooth="yes"/>
      <point x="493" y="262"/>
      <point x="488" y="288"/>
      <point x="478" y="312" type="curve"/>
      <point x="518" y="285"/>
      <point x="543" y="238"/>
      <point x="543" y="187" type="curve" smooth="yes"/>
      <point x="543" y="107"/>
      <point x="484" y="43"/>
    </contour>
    <contour>
      <point x="715" y="324" type="curve"/>
      <point x="678" y="397"/>
      <point x="606" y="435"/>
      <point x="532" y="435" type="curve" smooth="yes"/>
      <point x="506" y="435"/>
      <point x="482" y="431"/>
      <point x="458" y="424" type="curve"/>
      <point x="482" y="468"/>
      <point x="527" y="498"/>
      <point x="579" y="498" type="curve" smooth="yes"/>
      <point x="655" y="498"/>
      <point x="715" y="436"/>
      <point x="715" y="357" type="curve" smooth="yes"/>
      <point x="715" y="347"/>
      <point x="715" y="335"/>
    </contour>
    <contour>
      <point x="287" y="94" type="curve" smooth="yes"/>
      <point x="240" y="94"/>
      <point x="191" y="124"/>
      <point x="168" y="169" type="curve"/>
      <point x="190" y="162"/>
      <point x="215" y="158"/>
      <point x="239" y="158" type="curve" smooth="yes"/>
      <point x="318" y="158"/>
      <point x="389" y="203"/>
      <point x="424" y="268" type="curve"/>
      <point x="424" y="259"/>
      <point x="424" y="248"/>
      <point x="424" y="239" type="curve" smooth="yes"/>
      <point x="424" y="157"/>
      <point x="359" y="94"/>
    </contour>
    <contour>
      <point x="394" y="446" type="curve"/>
      <point x="394" y="455"/>
      <point x="394" y="466"/>
      <point x="394" y="475" type="curve" smooth="yes"/>
      <point x="394" y="557"/>
      <point x="460" y="620"/>
      <point x="531" y="620" type="curve" smooth="yes"/>
      <point x="579" y="620"/>
      <point x="629" y="588"/>
      <point x="652" y="545" type="curve"/>
      <point x="628" y="552"/>
      <point x="604" y="556"/>
      <point x="579" y="556" type="curve" smooth="yes"/>
      <point x="500" y="556"/>
      <point x="430" y="511"/>
    </contour>
    <contour>
      <point x="239" y="216" type="curve" smooth="yes"/>
      <point x="163" y="216"/>
      <point x="103" y="278"/>
      <point x="103" y="357" type="curve" smooth="yes"/>
      <point x="103" y="367"/>
      <point x="103" y="379"/>
      <point x="103" y="390" type="curve"/>
      <point x="141" y="317"/>
      <point x="212" y="279"/>
      <point x="287" y="279" type="curve" smooth="yes"/>
      <point x="312" y="279"/>
      <point x="336" y="283"/>
      <point x="360" y="290" type="curve"/>
      <point x="336" y="246"/>
      <point x="292" y="216"/>
    </contour>
    <contour>
      <point x="340" y="402" type="curve"/>
      <point x="300" y="429"/>
      <point x="275" y="476"/>
      <point x="275" y="527" type="curve" smooth="yes"/>
      <point x="275" y="607"/>
      <point x="334" y="671"/>
      <point x="409" y="671" type="curve" smooth="yes"/>
      <point x="426" y="671"/>
      <point x="441" y="668"/>
      <point x="456" y="662" type="curve"/>
      <point x="373" y="633"/>
      <point x="325" y="558"/>
      <point x="325" y="478" type="curve" smooth="yes"/>
      <point x="325" y="452"/>
      <point x="330" y="426"/>
    </contour>
    <contour>
      <point x="291" y="334" type="curve" smooth="yes"/>
      <point x="218" y="334"/>
      <point x="154" y="399"/>
      <point x="154" y="479" type="curve" smooth="yes"/>
      <point x="154" y="528"/>
      <point x="177" y="574"/>
      <point x="219" y="603" type="curve"/>
      <point x="210" y="580"/>
      <point x="204" y="554"/>
      <point x="204" y="527" type="curve" smooth="yes"/>
      <point x="204" y="443"/>
      <point x="260" y="372"/>
      <point x="336" y="342" type="curve"/>
      <point x="321" y="337"/>
      <point x="306" y="334"/>
    </contour>
  </outline>
</glyph>
<glyph name="uni058E" format="2">
  <advance width="818"/>
  <unicode hex="058E"/>
  <outline>
    <contour>
      <point x="409" y="-10" type="curve" smooth="yes"/>
      <point x="459" y="-10"/>
      <point x="510" y="8"/>
      <point x="548" y="41" type="curve"/>
      <point x="653" y="50"/>
      <point x="728" y="128"/>
      <point x="732" y="226" type="curve"/>
      <point x="764" y="261"/>
      <point x="784" y="307"/>
      <point x="784" y="357" type="curve" smooth="yes"/>
      <point x="784" y="403"/>
      <point x="766" y="448"/>
      <point x="733" y="487" type="curve"/>
      <point x="729" y="587"/>
      <point x="653" y="663"/>
      <point x="545" y="674" type="curve"/>
      <point x="508" y="706"/>
      <point x="460" y="724"/>
      <point x="409" y="724" type="curve" smooth="yes"/>
      <point x="358" y="724"/>
      <point x="308" y="706"/>
      <point x="271" y="673" type="curve"/>
      <point x="168" y="664"/>
      <point x="90" y="588"/>
      <point x="86" y="488" type="curve"/>
      <point x="54" y="453"/>
      <point x="34" y="407"/>
      <point x="34" y="357" type="curve" smooth="yes"/>
      <point x="34" y="310"/>
      <point x="51" y="265"/>
      <point x="84" y="227" type="curve"/>
      <point x="89" y="128"/>
      <point x="164" y="51"/>
      <point x="271" y="40" type="curve"/>
      <point x="309" y="8"/>
      <point x="356" y="-10"/>
    </contour>
    <contour>
      <point x="219" y="112" type="curve"/>
      <point x="183" y="134"/>
      <point x="154" y="182"/>
      <point x="154" y="235" type="curve" smooth="yes"/>
      <point x="154" y="315"/>
      <point x="218" y="380"/>
      <point x="291" y="380" type="curve" smooth="yes"/>
      <point x="306" y="380"/>
      <point x="321" y="377"/>
      <point x="336" y="372" type="curve"/>
      <point x="260" y="342"/>
      <point x="204" y="271"/>
      <point x="204" y="187" type="curve" smooth="yes"/>
      <point x="204" y="161"/>
      <point x="210" y="136"/>
    </contour>
    <contour>
      <point x="409" y="43" type="curve" smooth="yes"/>
      <point x="334" y="43"/>
      <point x="275" y="107"/>
      <point x="275" y="187" type="curve" smooth="yes"/>
      <point x="275" y="238"/>
      <point x="300" y="285"/>
      <point x="340" y="312" type="curve"/>
      <point x="330" y="288"/>
      <point x="325" y="262"/>
      <point x="325" y="236" type="curve" smooth="yes"/>
      <point x="325" y="156"/>
      <point x="373" y="81"/>
      <point x="456" y="52" type="curve"/>
      <point x="440" y="45"/>
      <point x="426" y="43"/>
    </contour>
    <contour>
      <point x="103" y="324" type="curve"/>
      <point x="103" y="335"/>
      <point x="103" y="347"/>
      <point x="103" y="357" type="curve" smooth="yes"/>
      <point x="103" y="436"/>
      <point x="163" y="498"/>
      <point x="239" y="498" type="curve" smooth="yes"/>
      <point x="292" y="498"/>
      <point x="336" y="468"/>
      <point x="360" y="424" type="curve"/>
      <point x="336" y="431"/>
      <point x="312" y="435"/>
      <point x="287" y="435" type="curve" smooth="yes"/>
      <point x="212" y="435"/>
      <point x="141" y="397"/>
    </contour>
    <contour>
      <point x="531" y="94" type="curve" smooth="yes"/>
      <point x="460" y="94"/>
      <point x="394" y="157"/>
      <point x="394" y="239" type="curve" smooth="yes"/>
      <point x="394" y="248"/>
      <point x="394" y="259"/>
      <point x="394" y="268" type="curve"/>
      <point x="430" y="203"/>
      <point x="500" y="158"/>
      <point x="579" y="158" type="curve" smooth="yes"/>
      <point x="604" y="158"/>
      <point x="628" y="162"/>
      <point x="650" y="169" type="curve"/>
      <point x="628" y="124"/>
      <point x="578" y="94"/>
    </contour>
    <contour>
      <point x="424" y="446" type="curve"/>
      <point x="389" y="511"/>
      <point x="318" y="556"/>
      <point x="240" y="556" type="curve" smooth="yes"/>
      <point x="215" y="556"/>
      <point x="191" y="552"/>
      <point x="167" y="545" type="curve"/>
      <point x="190" y="588"/>
      <point x="240" y="620"/>
      <point x="287" y="620" type="curve" smooth="yes"/>
      <point x="359" y="620"/>
      <point x="425" y="557"/>
      <point x="425" y="475" type="curve" smooth="yes"/>
      <point x="425" y="466"/>
      <point x="424" y="455"/>
    </contour>
    <contour>
      <point x="579" y="216" type="curve" smooth="yes"/>
      <point x="527" y="216"/>
      <point x="482" y="246"/>
      <point x="458" y="290" type="curve"/>
      <point x="482" y="283"/>
      <point x="506" y="279"/>
      <point x="532" y="279" type="curve" smooth="yes"/>
      <point x="606" y="279"/>
      <point x="677" y="317"/>
      <point x="715" y="390" type="curve"/>
      <point x="715" y="379"/>
      <point x="715" y="367"/>
      <point x="715" y="357" type="curve" smooth="yes"/>
      <point x="715" y="278"/>
      <point x="655" y="216"/>
    </contour>
    <contour>
      <point x="478" y="402" type="curve"/>
      <point x="488" y="426"/>
      <point x="493" y="452"/>
      <point x="493" y="478" type="curve" smooth="yes"/>
      <point x="493" y="558"/>
      <point x="445" y="633"/>
      <point x="362" y="662" type="curve"/>
      <point x="377" y="668"/>
      <point x="392" y="671"/>
      <point x="409" y="671" type="curve" smooth="yes"/>
      <point x="484" y="671"/>
      <point x="543" y="607"/>
      <point x="543" y="527" type="curve" smooth="yes"/>
      <point x="543" y="476"/>
      <point x="518" y="429"/>
    </contour>
    <contour>
      <point x="528" y="334" type="curve" smooth="yes"/>
      <point x="513" y="334"/>
      <point x="498" y="337"/>
      <point x="483" y="342" type="curve"/>
      <point x="559" y="372"/>
      <point x="615" y="443"/>
      <point x="615" y="527" type="curve" smooth="yes"/>
      <point x="615" y="554"/>
      <point x="609" y="580"/>
      <point x="600" y="603" type="curve"/>
      <point x="642" y="574"/>
      <point x="665" y="528"/>
      <point x="665" y="479" type="curve" smooth="yes"/>
      <point x="665" y="399"/>
      <point x="601" y="334"/>
    </contour>
  </outline>
</glyph>
<glyph name="uni058F" format="2">
  <advance width="786"/>
  <unicode hex="058F"/>
  <note>
uni058F
</note>
  <outline>
    <contour>
      <point x="50" y="363" type="line"/>
      <point x="244" y="363" type="line"/>
      <point x="244" y="472" type="line" smooth="yes"/>
      <point x="244" y="553"/>
      <point x="285" y="598"/>
      <point x="350" y="598" type="curve" smooth="yes"/>
      <point x="421" y="598"/>
      <point x="459" y="551"/>
      <point x="459" y="469" type="curve" smooth="yes"/>
      <point x="459" y="0" type="line"/>
      <point x="696" y="0" type="line"/>
      <point x="696" y="60" type="line"/>
      <point x="660" y="60"/>
      <point x="653" y="69"/>
      <point x="653" y="116" type="curve" smooth="yes"/>
      <point x="653" y="439" type="line" smooth="yes"/>
      <point x="653" y="584"/>
      <point x="544" y="674"/>
      <point x="351" y="674" type="curve" smooth="yes"/>
      <point x="163" y="674"/>
      <point x="50" y="595"/>
      <point x="50" y="440" type="curve" smooth="yes"/>
    </contour>
    <contour>
      <point x="349" y="290" type="line"/>
      <point x="762" y="290" type="line"/>
      <point x="762" y="360" type="line"/>
      <point x="349" y="360" type="line"/>
    </contour>
    <contour>
      <point x="349" y="171" type="line"/>
      <point x="762" y="171" type="line"/>
      <point x="762" y="241" type="line"/>
      <point x="349" y="241" type="line"/>
    </contour>
  </outline>
</glyph>
<glyph name="uniFB13" format="2">
  <advance width="1243"/>
  <unicode hex="FB13"/>
  <note>
uniFB13
</note>
  <outline>
    <contour>
      <point x="555" y="103" type="curve" smooth="yes"/>
      <point x="555" y="380" type="line" smooth="yes"/>
      <point x="555" y="444"/>
      <point x="530" y="495"/>
      <point x="448" y="564" type="curve" smooth="yes"/>
      <point x="408" y="597"/>
      <point x="390" y="627"/>
      <point x="390" y="652" type="curve" smooth="yes"/>
      <point x="390" y="677"/>
      <point x="404" y="694"/>
      <point x="459" y="694" type="curve" smooth="yes"/>
      <point x="546" y="694"/>
      <point x="636" y="673"/>
      <point x="737" y="636" type="curve"/>
      <point x="849" y="706" type="line"/>
      <point x="695" y="747"/>
      <point x="557" y="764"/>
      <point x="444" y="764" type="curve" smooth="yes"/>
      <point x="292" y="764"/>
      <point x="224" y="713"/>
      <point x="224" y="625" type="curve" smooth="yes"/>
      <point x="224" y="578"/>
      <point x="248" y="545"/>
      <point x="297" y="504" type="curve" smooth="yes"/>
      <point x="345" y="464"/>
      <point x="369" y="425"/>
      <point x="369" y="370" type="curve" smooth="yes"/>
      <point x="369" y="234" type="line" smooth="yes"/>
      <point x="369" y="156"/>
      <point x="365" y="88"/>
      <point x="308" y="88" type="curve" smooth="yes"/>
      <point x="264" y="88"/>
      <point x="249" y="131"/>
      <point x="249" y="214" type="curve" smooth="yes"/>
      <point x="249" y="492" type="line"/>
      <point x="23" y="492" type="line"/>
      <point x="23" y="430" type="line"/>
      <point x="59" y="430"/>
      <point x="63" y="419"/>
      <point x="63" y="385" type="curve" smooth="yes"/>
      <point x="63" y="179" type="line" smooth="yes"/>
      <point x="63" y="43"/>
      <point x="124" y="-14"/>
      <point x="223" y="-14" type="curve" smooth="yes"/>
      <point x="280" y="-14"/>
      <point x="325" y="-4"/>
      <point x="369" y="65" type="curve"/>
      <point x="374" y="65" type="line"/>
      <point x="390" y="0" type="line"/>
      <point x="595" y="0" type="line"/>
      <point x="595" y="62" type="line"/>
      <point x="571" y="62"/>
      <point x="555" y="72"/>
    </contour>
    <contour>
      <point x="1178" y="103" type="curve" smooth="yes"/>
      <point x="1178" y="492" type="line"/>
      <point x="952" y="492" type="line"/>
      <point x="952" y="430" type="line"/>
      <point x="986" y="430"/>
      <point x="992" y="419"/>
      <point x="992" y="388" type="curve" smooth="yes"/>
      <point x="992" y="234" type="line" smooth="yes"/>
      <point x="992" y="154"/>
      <point x="986" y="88"/>
      <point x="913" y="88" type="curve" smooth="yes"/>
      <point x="872" y="88"/>
      <point x="857" y="129"/>
      <point x="857" y="211" type="curve" smooth="yes"/>
      <point x="857" y="296"/>
      <point x="871" y="412"/>
      <point x="895" y="495" type="curve"/>
      <point x="799" y="514" type="line"/>
      <point x="720" y="395"/>
      <point x="668" y="270"/>
      <point x="668" y="176" type="curve" smooth="yes"/>
      <point x="668" y="41"/>
      <point x="751" y="-14"/>
      <point x="849" y="-14" type="curve" smooth="yes"/>
      <point x="908" y="-14"/>
      <point x="952" y="2"/>
      <point x="991" y="67" type="curve"/>
      <point x="997" y="67" type="line"/>
      <point x="1012" y="0" type="line"/>
      <point x="1216" y="0" type="line"/>
      <point x="1216" y="62" type="line"/>
      <point x="1194" y="62"/>
      <point x="1178" y="72"/>
    </contour>
    <contour>
      <point x="849" y="706" type="curve"/>
      <point x="689" y="737" type="line"/>
      <point x="650" y="707"/>
      <point x="631" y="662"/>
      <point x="631" y="612" type="curve" smooth="yes"/>
      <point x="631" y="546"/>
      <point x="678" y="496"/>
      <point x="784" y="468" type="curve"/>
      <point x="895" y="495" type="line"/>
      <point x="895" y="508" type="line"/>
      <point x="806" y="525"/>
      <point x="792" y="558"/>
      <point x="792" y="592" type="curve" smooth="yes"/>
      <point x="792" y="647"/>
      <point x="805" y="671"/>
    </contour>
  </outline>
</glyph>
<glyph name="uniFB14" format="2">
  <advance width="1244"/>
  <unicode hex="FB14"/>
  <note>
uniFB14
</note>
  <outline>
    <contour>
      <point x="224" y="625" type="curve" smooth="yes"/>
      <point x="224" y="578"/>
      <point x="249" y="546"/>
      <point x="297" y="505" type="curve" smooth="yes"/>
      <point x="345" y="464"/>
      <point x="369" y="425"/>
      <point x="369" y="370" type="curve" smooth="yes"/>
      <point x="369" y="234" type="line" smooth="yes"/>
      <point x="369" y="156"/>
      <point x="365" y="88"/>
      <point x="308" y="88" type="curve" smooth="yes"/>
      <point x="264" y="88"/>
      <point x="249" y="131"/>
      <point x="249" y="214" type="curve" smooth="yes"/>
      <point x="249" y="492" type="line"/>
      <point x="23" y="492" type="line"/>
      <point x="23" y="430" type="line"/>
      <point x="59" y="430"/>
      <point x="63" y="419"/>
      <point x="63" y="385" type="curve" smooth="yes"/>
      <point x="63" y="179" type="line" smooth="yes"/>
      <point x="63" y="43"/>
      <point x="124" y="-14"/>
      <point x="223" y="-14" type="curve" smooth="yes"/>
      <point x="280" y="-14"/>
      <point x="325" y="-14"/>
      <point x="369" y="65" type="curve"/>
      <point x="374" y="65" type="line"/>
      <point x="390" y="0" type="line"/>
      <point x="595" y="0" type="line"/>
      <point x="595" y="62" type="line"/>
      <point x="571" y="62"/>
      <point x="555" y="72"/>
      <point x="555" y="103" type="curve" smooth="yes"/>
      <point x="555" y="380" type="line" smooth="yes"/>
      <point x="555" y="442"/>
      <point x="531" y="494"/>
      <point x="449" y="562" type="curve" smooth="yes"/>
      <point x="408" y="596"/>
      <point x="390" y="627"/>
      <point x="390" y="652" type="curve" smooth="yes"/>
      <point x="390" y="677"/>
      <point x="404" y="694"/>
      <point x="459" y="694" type="curve" smooth="yes"/>
      <point x="565" y="694"/>
      <point x="708" y="659"/>
      <point x="830" y="601" type="curve"/>
      <point x="871" y="703" type="line"/>
      <point x="711" y="741"/>
      <point x="581" y="764"/>
      <point x="444" y="764" type="curve" smooth="yes"/>
      <point x="292" y="764"/>
      <point x="224" y="713"/>
    </contour>
    <contour>
      <point x="1177" y="320" type="line"/>
      <point x="991" y="320" type="line"/>
      <point x="991" y="234" type="line" smooth="yes"/>
      <point x="991" y="156"/>
      <point x="987" y="88"/>
      <point x="930" y="88" type="curve" smooth="yes"/>
      <point x="886" y="88"/>
      <point x="871" y="131"/>
      <point x="871" y="214" type="curve" smooth="yes"/>
      <point x="871" y="703" type="line"/>
      <point x="685" y="703" type="line"/>
      <point x="685" y="179" type="line" smooth="yes"/>
      <point x="685" y="43"/>
      <point x="746" y="-14"/>
      <point x="844" y="-14" type="curve" smooth="yes"/>
      <point x="902" y="-14"/>
      <point x="947" y="-14"/>
      <point x="990" y="65" type="curve"/>
      <point x="996" y="65" type="line"/>
      <point x="1012" y="0" type="line"/>
      <point x="1217" y="0" type="line"/>
      <point x="1217" y="62" type="line"/>
      <point x="1192" y="62"/>
      <point x="1177" y="72"/>
      <point x="1177" y="103" type="curve" smooth="yes"/>
    </contour>
    <contour>
      <point x="844" y="422" type="line"/>
      <point x="1198" y="422" type="line"/>
      <point x="1198" y="492" type="line"/>
      <point x="844" y="492" type="line"/>
    </contour>
  </outline>
</glyph>
<glyph name="uniFB15" format="2">
  <advance width="1255"/>
  <unicode hex="FB15"/>
  <note>
uniFB15
</note>
  <outline>
    <contour>
      <point x="224" y="625" type="curve" smooth="yes"/>
      <point x="224" y="577"/>
      <point x="248" y="543"/>
      <point x="298" y="502" type="curve" smooth="yes"/>
      <point x="346" y="463"/>
      <point x="369" y="424"/>
      <point x="369" y="370" type="curve" smooth="yes"/>
      <point x="369" y="234" type="line" smooth="yes"/>
      <point x="369" y="156"/>
      <point x="365" y="88"/>
      <point x="308" y="88" type="curve" smooth="yes"/>
      <point x="264" y="88"/>
      <point x="249" y="131"/>
      <point x="249" y="214" type="curve" smooth="yes"/>
      <point x="249" y="492" type="line"/>
      <point x="23" y="492" type="line"/>
      <point x="23" y="430" type="line"/>
      <point x="59" y="430"/>
      <point x="63" y="419"/>
      <point x="63" y="385" type="curve" smooth="yes"/>
      <point x="63" y="179" type="line" smooth="yes"/>
      <point x="63" y="43"/>
      <point x="124" y="-14"/>
      <point x="223" y="-14" type="curve" smooth="yes"/>
      <point x="280" y="-14"/>
      <point x="325" y="-4"/>
      <point x="369" y="65" type="curve"/>
      <point x="374" y="65" type="line"/>
      <point x="390" y="0" type="line"/>
      <point x="595" y="0" type="line"/>
      <point x="595" y="62" type="line"/>
      <point x="571" y="62"/>
      <point x="555" y="72"/>
      <point x="555" y="103" type="curve" smooth="yes"/>
      <point x="555" y="380" type="line" smooth="yes"/>
      <point x="555" y="442"/>
      <point x="531" y="494"/>
      <point x="450" y="561" type="curve" smooth="yes"/>
      <point x="408" y="595"/>
      <point x="390" y="626"/>
      <point x="390" y="652" type="curve" smooth="yes"/>
      <point x="390" y="677"/>
      <point x="402" y="694"/>
      <point x="458" y="694" type="curve" smooth="yes"/>
      <point x="567" y="694"/>
      <point x="722" y="659"/>
      <point x="841" y="601" type="curve"/>
      <point x="882" y="703" type="line"/>
      <point x="717" y="739"/>
      <point x="571" y="764"/>
      <point x="442" y="764" type="curve" smooth="yes"/>
      <point x="291" y="764"/>
      <point x="224" y="713"/>
    </contour>
    <contour>
      <point x="1228" y="62" type="line"/>
      <point x="1192" y="62"/>
      <point x="1188" y="73"/>
      <point x="1188" y="107" type="curve" smooth="yes"/>
      <point x="1188" y="307" type="line" smooth="yes"/>
      <point x="1188" y="445"/>
      <point x="1126" y="502"/>
      <point x="1029" y="502" type="curve" smooth="yes"/>
      <point x="966" y="502"/>
      <point x="924" y="490"/>
      <point x="883" y="425" type="curve"/>
      <point x="878" y="425" type="line"/>
      <point x="880" y="448"/>
      <point x="882" y="469"/>
      <point x="882" y="493" type="curve" smooth="yes"/>
      <point x="882" y="703" type="line"/>
      <point x="696" y="703" type="line"/>
      <point x="696" y="-265" type="line"/>
      <point x="922" y="-265" type="line"/>
      <point x="922" y="-203" type="line"/>
      <point x="888" y="-203"/>
      <point x="882" y="-192"/>
      <point x="882" y="-161" type="curve" smooth="yes"/>
      <point x="882" y="258" type="line" smooth="yes"/>
      <point x="882" y="338"/>
      <point x="892" y="400"/>
      <point x="944" y="400" type="curve" smooth="yes"/>
      <point x="989" y="400"/>
      <point x="1002" y="355"/>
      <point x="1002" y="270" type="curve" smooth="yes"/>
      <point x="1002" y="0" type="line"/>
      <point x="1228" y="0" type="line"/>
    </contour>
  </outline>
</glyph>
<glyph name="uniFB16" format="2">
  <advance width="1237"/>
  <unicode hex="FB16"/>
  <note>
uniFB16
</note>
  <outline>
    <contour>
      <point x="369" y="-265" type="line"/>
      <point x="556" y="-265" type="line"/>
      <point x="556" y="637" type="line" smooth="yes"/>
      <point x="556" y="670"/>
      <point x="570" y="694"/>
      <point x="603" y="694" type="curve" smooth="yes"/>
      <point x="628" y="694"/>
      <point x="692" y="667"/>
      <point x="728" y="633" type="curve"/>
      <point x="843" y="706" type="line"/>
      <point x="760" y="738"/>
      <point x="637" y="764"/>
      <point x="569" y="764" type="curve"/>
      <point x="433" y="764"/>
      <point x="368" y="704"/>
      <point x="368" y="610" type="curve" smooth="yes"/>
      <point x="368" y="234" type="line" smooth="yes"/>
      <point x="368" y="156"/>
      <point x="364" y="88"/>
      <point x="307" y="88" type="curve" smooth="yes"/>
      <point x="263" y="88"/>
      <point x="248" y="131"/>
      <point x="248" y="214" type="curve" smooth="yes"/>
      <point x="248" y="492" type="line"/>
      <point x="22" y="492" type="line"/>
      <point x="22" y="430" type="line"/>
      <point x="58" y="430"/>
      <point x="62" y="419"/>
      <point x="62" y="385" type="curve" smooth="yes"/>
      <point x="62" y="179" type="line" smooth="yes"/>
      <point x="62" y="43"/>
      <point x="123" y="-14"/>
      <point x="222" y="-14" type="curve" smooth="yes"/>
      <point x="279" y="-14"/>
      <point x="324" y="-14"/>
      <point x="367" y="65" type="curve"/>
      <point x="375" y="65" type="line"/>
      <point x="372" y="42"/>
      <point x="369" y="19"/>
      <point x="369" y="-4" type="curve" smooth="yes"/>
    </contour>
    <contour>
      <point x="532" y="-265" type="line"/>
      <point x="700" y="-265" type="line"/>
      <point x="700" y="-196" type="line"/>
      <point x="532" y="-196" type="line"/>
    </contour>
    <contour>
      <point x="843" y="-14" type="curve" smooth="yes"/>
      <point x="902" y="-14"/>
      <point x="946" y="2"/>
      <point x="985" y="67" type="curve"/>
      <point x="991" y="67" type="line"/>
      <point x="1006" y="0" type="line"/>
      <point x="1210" y="0" type="line"/>
      <point x="1210" y="62" type="line"/>
      <point x="1188" y="62"/>
      <point x="1172" y="72"/>
      <point x="1172" y="103" type="curve" smooth="yes"/>
      <point x="1172" y="492" type="line"/>
      <point x="946" y="492" type="line"/>
      <point x="946" y="430" type="line"/>
      <point x="980" y="430"/>
      <point x="986" y="419"/>
      <point x="986" y="388" type="curve" smooth="yes"/>
      <point x="986" y="234" type="line" smooth="yes"/>
      <point x="986" y="154"/>
      <point x="980" y="88"/>
      <point x="907" y="88" type="curve" smooth="yes"/>
      <point x="866" y="88"/>
      <point x="851" y="129"/>
      <point x="851" y="211" type="curve" smooth="yes"/>
      <point x="851" y="296"/>
      <point x="865" y="412"/>
      <point x="889" y="495" type="curve"/>
      <point x="793" y="514" type="line"/>
      <point x="714" y="395"/>
      <point x="662" y="270"/>
      <point x="662" y="176" type="curve" smooth="yes"/>
      <point x="662" y="41"/>
      <point x="745" y="-14"/>
    </contour>
    <contour>
      <point x="778" y="468" type="curve"/>
      <point x="889" y="495" type="line"/>
      <point x="889" y="508" type="line"/>
      <point x="800" y="525"/>
      <point x="786" y="558"/>
      <point x="786" y="592" type="curve" smooth="yes"/>
      <point x="786" y="647"/>
      <point x="799" y="671"/>
      <point x="843" y="706" type="curve"/>
      <point x="683" y="737" type="line"/>
      <point x="644" y="707"/>
      <point x="625" y="662"/>
      <point x="625" y="612" type="curve" smooth="yes"/>
      <point x="625" y="546"/>
      <point x="672" y="496"/>
    </contour>
  </outline>
</glyph>
